<svg xmlns="http://www.w3.org/2000/svg" width="1200" height="1500" viewBox="0 0 1200 1500" preserveAspectRatio="xMidYMid slice" role="img" aria-labelledby="cat-sustainable-title"><title id="cat-sustainable-title">Sustainable Living — abstract landscape community</title><desc>Clustered pitched roofs set into contoured land with overlapping tree canopies.</desc><defs><linearGradient id="cat-sustainable-ground" gradientUnits="userSpaceOnUse" x1="0" y1="820" x2="0" y2="2900"><stop offset="0" stop-color="#0e0f12"/><stop offset="0.42" stop-color="#111412"/><stop offset="1" stop-color="#111412"/></linearGradient><linearGradient id="cat-sustainable-clusterrim" gradientUnits="userSpaceOnUse" x1="1396" y1="0" x2="1432" y2="0"><stop offset="0" stop-color="#a8bfa6" stop-opacity="0"/><stop offset="0.55" stop-color="#a8bfa6" stop-opacity="0.2"/><stop offset="1" stop-color="#a8bfa6" stop-opacity="0.5"/></linearGradient><clipPath id="cat-sustainable-waterclip"><ellipse cx="636" cy="1178" rx="300" ry="78"/></clipPath><linearGradient id="cat-sustainable-sky" gradientUnits="userSpaceOnUse" x1="0" y1="0" x2="0" y2="1500"><stop offset="0" stop-color="#080a0c"/><stop offset="0.02" stop-color="#111519"/><stop offset="0.441" stop-color="#1e2321"/><stop offset="1" stop-color="#0b0d0e"/></linearGradient><radialGradient id="cat-sustainable-glow" gradientUnits="userSpaceOnUse" cx="1062" cy="519" r="1380"><stop offset="0" stop-color="#a8bfa6" stop-opacity="0.32"/><stop offset="0.3" stop-color="#a8bfa6" stop-opacity="0.134"/><stop offset="0.66" stop-color="#a8bfa6" stop-opacity="0.038"/><stop offset="1" stop-color="#a8bfa6" stop-opacity="0"/></radialGradient><linearGradient id="cat-sustainable-haze" gradientUnits="userSpaceOnUse" x1="0" y1="212" x2="0" y2="902"><stop offset="0" stop-color="#7d9d7b" stop-opacity="0"/><stop offset="0.62" stop-color="#7d9d7b" stop-opacity="0.32"/><stop offset="0.82" stop-color="#7d9d7b" stop-opacity="0.16"/><stop offset="1" stop-color="#7d9d7b" stop-opacity="0"/></linearGradient><pattern id="cat-sustainable-grid" width="18" height="18" patternUnits="userSpaceOnUse"><rect x="0" y="0" width="1" height="18" fill="#f5f3ee" fill-opacity="0.5"/></pattern><radialGradient id="cat-sustainable-vignette" cx="0.5" cy="0.46" r="0.78"><stop offset="0.3" stop-color="#000000" stop-opacity="0"/><stop offset="0.68" stop-color="#000000" stop-opacity="0.26"/><stop offset="1" stop-color="#060607" stop-opacity="0.82"/></radialGradient><filter id="cat-sustainable-grain" x="-2%" y="-2%" width="104%" height="104%" color-interpolation-filters="sRGB"><feTurbulence type="fractalNoise" baseFrequency="0.82" numOctaves="3" seed="11" stitchTiles="stitch" result="noise"/><feColorMatrix in="noise" type="matrix" values="0 0 0 0 1 0 0 0 0 1 0 0 0 0 1 0.9 0 0 0 -0.36"/></filter></defs><rect x="0" y="0" width="1200" height="1500" fill="url(#cat-sustainable-sky)"/><rect x="0" y="0" width="1200" height="1500" fill="url(#cat-sustainable-glow)"/><rect x="0" y="0" width="1200" height="1500" fill="url(#cat-sustainable-haze)"/><g transform="translate(-632 -240) scale(1.1)"><polygon points="-1800,726.76 -1560,701.76 -1320,676.22 -1080,627.52 -840,594.37 -600,608.98 -360,632.62 -120,643.63 120,669.28 360,695.65 600,685.1 840,667.08 1080,682.58 1320,706.49 1560,722.31 1800,760.22 2040,806.32 2280,809.76 2520,783.47 2760,766.71 3000,742.55 3240,702.71 3480,691.34 3720,710.58 3960,710.14 4200,690.12 4440,680.65 4640,2900 -1800,2900" fill="#0e0f12"/><polygon points="-1800,833.96 -1580,838.22 -1360,825.07 -1140,800.72 -920,783.29 -700,774.22 -480,764.64 -260,759.36 -40,765.84 180,772.42 400,764.87 620,750.43 840,741.55 1060,734.45 1280,725.82 1500,728.61 1720,749.43 1940,773.2 2160,787.75 2380,799.32 2600,810.34 2820,810.05 3040,799.17 3260,795.22 3480,803.66 3700,811.94 3920,816.21 4140,824.04 4360,829.71 4580,818.37 4620,2900 -1800,2900" fill="#0d0f11"/><rect x="-1800" y="820" width="6200" height="2080" fill="url(#cat-sustainable-ground)"/><path d="M -1800 860 q 39.03 -52.81 78.05 0 q 34.46 -61.31 68.91 0 q 72.37 -41.01 144.73 0 q 57.58 -56.17 115.17 0 q 66.68 -84.2 133.35 0 q 71.71 -69.31 143.41 0 q 56.56 -39.02 113.13 0 q 38.97 -44.83 77.93 0 q 69.91 -90.81 139.83 0 q 37.66 -36.91 75.32 0 q 60.22 -60.17 120.45 0 q 49.71 -40.68 99.43 0 q 46.94 -58.3 93.87 0 q 52.35 -79.87 104.7 0 q 60.63 -89.35 121.26 0 q 42.34 -57.57 84.67 0 q 69.56 -82.68 139.13 0 q 72.72 -88.13 145.44 0 q 34.05 -63.37 68.1 0 q 54.89 -76.48 109.78 0 q 68.97 -76.87 137.94 0 q 72 -79.26 143.99 0 q 64.85 -88.99 129.71 0 q 49.66 -44.23 99.33 0 q 67.78 -77.74 135.56 0 q 34.69 -74.1 69.38 0 q 69.53 -64.2 139.06 0 q 36.62 -82.43 73.24 0 q 60.42 -38.76 120.85 0 q 60.98 -86.4 121.96 0 q 32.46 -68.11 64.92 0 q 55.9 -65.59 111.8 0 q 64.56 -86.14 129.12 0 q 65.46 -80.24 130.93 0 q 51.86 -78.26 103.72 0 q 60.98 -56.48 121.95 0 q 37.27 -47.32 74.53 0 q 32.89 -62.97 65.79 0 q 59.69 -38.87 119.37 0 q 65.65 -42.02 131.3 0 q 47.85 -68.61 95.7 0 q 33.48 -90.78 66.96 0 q 59.64 -51.3 119.28 0 q 72.97 -73.02 145.93 0 q 42.31 -60.54 84.62 0 q 41.98 -87.56 83.96 0 q 58.02 -80.31 116.05 0 q 55.6 -81.23 111.2 0 q 69.72 -48.06 139.45 0 q 58.39 -75.73 116.79 0 q 69.75 -60.66 139.49 0 q 62.62 -48.06 125.25 0 q 72.86 -79.26 145.73 0 q 59.58 -79.94 119.17 0 q 62.84 -65.48 125.67 0 q 44.46 -44.68 88.93 0 L 4425.28 1320 L -1800 1320 Z" fill="#0b0d0c"/><polyline points="-700,888.24 -460,882.94 -220,881.4 20,882.25 260,882.67 500,880.66 740,876.68 980,873.35 1220,873.58 1460,878.37 1700,885.98 1940,893.05 2180,896.92 2420,897.38 2660,896.56 2900,897.24 3140,900.53" fill="none" stroke="#7d9d7b" stroke-width="1" stroke-opacity="0.12"/><polyline points="-700,888.35 -460,891.49 -220,891.09 20,889.73 260,891.42 500,898.45 740,909.35 980,919.71 1220,925.13 1460,924.18 1700,919.26 1940,914.69 2180,913.46 2420,915.05 2660,915.93 2900,912.39 3140,903.48" fill="none" stroke="#7d9d7b" stroke-width="1.11" stroke-opacity="0.133"/><polyline points="-700,930.72 -460,944.86 -220,957.55 20,963.33 260,960.86 500,953.67 740,947.43 980,945.71 1220,947.45 1460,947.93 1700,942.53 1940,930.49 2180,915.89 2420,904.99 2660,902 2900,906.32 3140,913.16" fill="none" stroke="#7d9d7b" stroke-width="1.23" stroke-opacity="0.146"/><polyline points="-700,1019.88 -460,1016.6 -220,1004.63 20,990.67 260,981.4 500,978.85 740,979.29 980,976.47 1220,966.7 1460,952.04 1700,939.23 1940,935.05 2180,941.49 2420,954.45 2660,966.63 2900,972.8 3140,973.3" fill="none" stroke="#7d9d7b" stroke-width="1.34" stroke-opacity="0.159"/><polyline points="-700,1024.51 -460,1043.55 -220,1064.45 20,1078.19 260,1079.97 500,1072.26 740,1062.71 980,1058.32 1220,1060.28 1460,1063.27 1700,1059.69 1940,1045.74 2180,1024.71 2420,1005.18 2660,995.23 2900,997 3140,1005.55" fill="none" stroke="#7d9d7b" stroke-width="1.46" stroke-opacity="0.171"/><polyline points="-700,1067.7 -460,1076.8 -220,1081.8 20,1079.17 260,1073.31 500,1073.1 740,1085 980,1107.73 1220,1132.6 1460,1149.28 1700,1152.74 1940,1146.38 2180,1139.01 2420,1138.03 2660,1143.8 2900,1149.39 3140,1145.94" fill="none" stroke="#7d9d7b" stroke-width="1.57" stroke-opacity="0.184"/><polyline points="-700,1257.96 -460,1259.27 -220,1245.04 20,1223.9 260,1207.1 500,1200.54 740,1200.96 980,1199.02 1220,1186.93 1460,1164.95 1700,1141.94 1940,1129.39 2180,1133.43 2420,1150.53 2660,1170.18 2900,1182.44 3140,1184.94" fill="none" stroke="#7d9d7b" stroke-width="1.69" stroke-opacity="0.197"/><polyline points="-700,1244.55 -460,1255.05 -220,1280.88 20,1313.13 260,1338.31 500,1347.43 740,1341.88 980,1331.71 1220,1327.74 1460,1333.28 1700,1341.67 1940,1341.42 2180,1325.08 2420,1295.44 2660,1264.15 2900,1244.05 3140,1240.46" fill="none" stroke="#7d9d7b" stroke-width="1.8" stroke-opacity="0.21"/><polyline points="-700,1347.2 -460,1356.44 -220,1383.22 20,1418.86 260,1448.5 500,1461.14 740,1456.85 980,1445.95 1220,1440.81 1460,1446.36 1700,1456.35 1940,1458.15 2180,1442.5 2420,1411 2660,1375.75 2900,1351.33 3140,1345" fill="none" stroke="#7d9d7b" stroke-width="1.91" stroke-opacity="0.223"/><polyline points="-700,1482.9 -460,1490.34 -220,1487.51 20,1485.83 260,1497.87 500,1527.14 740,1564.48 980,1593.82 1220,1603.04 1460,1592.18 1700,1572.84 1940,1559.28 2180,1557.96 2420,1563.02 2660,1561.18 2900,1542.33 3140,1507.93" fill="none" stroke="#7d9d7b" stroke-width="2.03" stroke-opacity="0.236"/><polyline points="-700,1596.12 -460,1615.59 -220,1653.27 20,1694.98 260,1723.27 500,1729.21 740,1718 980,1704.33 1220,1701.02 1460,1709.35 1700,1718.15 1940,1712.55 2180,1685.55 2420,1644.18 2660,1605.33 2900,1584.41 3140,1585.1" fill="none" stroke="#7d9d7b" stroke-width="2.14" stroke-opacity="0.249"/><polyline points="-700,1760.36 -460,1796.98 -220,1841.99 20,1876.25 260,1886.67 500,1874.94 740,1855.44 980,1844.2 1220,1846.92 1460,1854.97 1700,1852.32 1940,1828.19 2180,1786.05 2420,1742.27 2660,1715.22 2900,1712.86 3140,1727.89" fill="none" stroke="#7d9d7b" stroke-width="2.26" stroke-opacity="0.261"/><polyline points="-700,1915.9 -460,1956.78 -220,2004.79 20,2039.37 260,2047.69 500,2033.09 740,2011.81 980,2000.57 1220,2004.14 1460,2012.12 1700,2007.24 1940,1979.06 2180,1932.8 2420,1886.83 2660,1860.35 2900,1860.46 3140,1877.95" fill="none" stroke="#7d9d7b" stroke-width="2.37" stroke-opacity="0.274"/><polyline points="-700,2204.27 -460,2231.88 -220,2229.58 20,2201.93 260,2167.32 500,2144.57 740,2139.63 980,2142.01 1220,2133.75 1460,2103.99 1700,2058.37 1940,2016.22 2180,1997.49 2420,2008.92 2660,2039.66 2900,2069.48 3140,2083.5" fill="none" stroke="#7d9d7b" stroke-width="2.49" stroke-opacity="0.287"/><polyline points="-700,2217.77 -460,2247.42 -220,2299.29 20,2353.14 260,2386.58 500,2390.1 740,2372.88 980,2355.02 1220,2352.12 1460,2363.54 1700,2373.12 1940,2361.74 2180,2322.42 2420,2266.75 2660,2217.74 2900,2194.39 3140,2199" fill="none" stroke="#7d9d7b" stroke-width="2.6" stroke-opacity="0.3"/><rect x="1552" y="872" width="88" height="46" fill="#131418"/><polygon points="1543.2,872 1596,840 1648.8,872" fill="#0e0f12"/><rect x="1543.2" y="870" width="105.6" height="2.4" fill="#3a3f47" fill-opacity="0.45"/><rect x="1666" y="886" width="76" height="40" fill="#131418"/><polygon points="1658.4,886 1704,858 1749.6,886" fill="#0e0f12"/><rect x="1658.4" y="884" width="91.2" height="2.4" fill="#3a3f47" fill-opacity="0.45"/><rect x="1754" y="866" width="96" height="48" fill="#131418"/><polygon points="1744.4,866 1802,832 1859.6,866" fill="#0e0f12"/><rect x="1744.4" y="864" width="115.2" height="2.4" fill="#3a3f47" fill-opacity="0.45"/><rect x="517" y="884" width="82" height="44" fill="#131418"/><polygon points="508.8,884 558,854 607.2,884" fill="#0e0f12"/><rect x="508.8" y="882" width="98.4" height="2.4" fill="#3a3f47" fill-opacity="0.45"/><rect x="613" y="888" width="94" height="50" fill="#131418"/><polygon points="603.6,888 660,854 716.4,888" fill="#0e0f12"/><rect x="603.6" y="886" width="112.8" height="2.4" fill="#3a3f47" fill-opacity="0.45"/><rect x="753" y="900" width="118" height="62" fill="#191b20"/><polygon points="741.2,900 812,856 882.8,900" fill="#131418"/><rect x="741.2" y="898" width="141.6" height="2.4" fill="#3a3f47" fill-opacity="0.45"/><rect x="774.24" y="917.36" width="51.92" height="27.28" fill="#e5d3a8" fill-opacity="0.35"/><rect x="898" y="924" width="96" height="54" fill="#191b20"/><polygon points="888.4,924 946,886 1003.6,924" fill="#131418"/><rect x="888.4" y="922" width="115.2" height="2.4" fill="#3a3f47" fill-opacity="0.45"/><rect x="915.28" y="939.12" width="42.24" height="23.76" fill="#e5d3a8" fill-opacity="0.35"/><rect x="1007" y="926" width="134" height="70" fill="#191b20"/><polygon points="993.6,926 1074,876 1154.4,926" fill="#131418"/><rect x="993.6" y="924" width="160.8" height="2.4" fill="#3a3f47" fill-opacity="0.45"/><rect x="1031.12" y="945.6" width="58.96" height="30.8" fill="#e5d3a8" fill-opacity="0.35"/><rect x="1174" y="914" width="104" height="58" fill="#191b20"/><polygon points="1163.6,914 1226,874 1288.4,914" fill="#131418"/><rect x="1163.6" y="912" width="124.8" height="2.4" fill="#3a3f47" fill-opacity="0.45"/><rect x="1192.72" y="930.24" width="45.76" height="25.52" fill="#e5d3a8" fill-opacity="0.35"/><rect x="1289" y="934" width="126" height="66" fill="#191b20"/><polygon points="1276.4,934 1352,888 1427.6,934" fill="#131418"/><rect x="1276.4" y="932" width="151.2" height="2.4" fill="#3a3f47" fill-opacity="0.45"/><rect x="1311.68" y="952.48" width="55.44" height="29.04" fill="#e5d3a8" fill-opacity="0.35"/><rect x="1396" y="934" width="36" height="66" fill="url(#cat-sustainable-clusterrim)"/><circle cx="492.92" cy="1003.81" r="61.67" fill="#0b0f0c" fill-opacity="0.92"/><circle cx="470.55" cy="1023.89" r="50.91" fill="#0b0f0c" fill-opacity="0.92"/><circle cx="455.54" cy="1015.2" r="41.79" fill="#0b0f0c" fill-opacity="0.92"/><circle cx="444.1" cy="998.66" r="41.79" fill="#0b0f0c" fill-opacity="0.92"/><circle cx="470.96" cy="989.37" r="47.19" fill="#0b0f0c" fill-opacity="0.92"/><circle cx="460.44" cy="987.02" r="25.75" fill="#5c7d5b" fill-opacity="0.16"/><circle cx="450.47" cy="992.01" r="27.42" fill="#5c7d5b" fill-opacity="0.16"/><circle cx="446.45" cy="978.05" r="19.65" fill="#5c7d5b" fill-opacity="0.16"/><circle cx="1524.32" cy="991.03" r="32.64" fill="#0b0f0c" fill-opacity="0.92"/><circle cx="1509.58" cy="995.6" r="50.31" fill="#0b0f0c" fill-opacity="0.92"/><circle cx="1488.78" cy="995.95" r="42.01" fill="#0b0f0c" fill-opacity="0.92"/><circle cx="1486.2" cy="976.92" r="32.3" fill="#0b0f0c" fill-opacity="0.92"/><circle cx="1501.98" cy="974.69" r="38.29" fill="#0b0f0c" fill-opacity="0.92"/><circle cx="1496.97" cy="966.29" r="24.71" fill="#5c7d5b" fill-opacity="0.16"/><circle cx="1481.12" cy="972.67" r="19.19" fill="#5c7d5b" fill-opacity="0.16"/><circle cx="1476.86" cy="961.81" r="18.38" fill="#5c7d5b" fill-opacity="0.16"/><circle cx="1937.81" cy="966.63" r="42.49" fill="#0b0f0c" fill-opacity="0.92"/><circle cx="1912.11" cy="977.17" r="40.89" fill="#0b0f0c" fill-opacity="0.92"/><circle cx="1901.27" cy="969.14" r="37.45" fill="#0b0f0c" fill-opacity="0.92"/><circle cx="1896.77" cy="954.33" r="35.27" fill="#0b0f0c" fill-opacity="0.92"/><circle cx="1927.35" cy="951.16" r="43.98" fill="#0b0f0c" fill-opacity="0.92"/><circle cx="1908.77" cy="947.1" r="20.9" fill="#5c7d5b" fill-opacity="0.16"/><circle cx="1895.19" cy="953.13" r="18.35" fill="#5c7d5b" fill-opacity="0.16"/><circle cx="1894.94" cy="941.91" r="18.82" fill="#5c7d5b" fill-opacity="0.16"/><circle cx="319.47" cy="1062.92" r="64.56" fill="#0b0f0c" fill-opacity="0.92"/><circle cx="302.92" cy="1072.85" r="58.57" fill="#0b0f0c" fill-opacity="0.92"/><circle cx="262.57" cy="1071.27" r="69.92" fill="#0b0f0c" fill-opacity="0.92"/><circle cx="270" cy="1039.41" r="68.92" fill="#0b0f0c" fill-opacity="0.92"/><circle cx="312.33" cy="1047.79" r="68.84" fill="#0b0f0c" fill-opacity="0.92"/><circle cx="288.87" cy="1035.13" r="31.55" fill="#5c7d5b" fill-opacity="0.16"/><circle cx="277.31" cy="1041.83" r="37.44" fill="#5c7d5b" fill-opacity="0.16"/><circle cx="269.28" cy="1024.62" r="35.62" fill="#5c7d5b" fill-opacity="0.16"/><circle cx="2083.2" cy="1028.45" r="67.83" fill="#0b0f0c" fill-opacity="0.92"/><circle cx="2059.32" cy="1044.45" r="57.23" fill="#0b0f0c" fill-opacity="0.92"/><circle cx="2039.62" cy="1042.32" r="50.78" fill="#0b0f0c" fill-opacity="0.92"/><circle cx="2035.27" cy="1023.25" r="67.23" fill="#0b0f0c" fill-opacity="0.92"/><circle cx="2072.27" cy="1011.44" r="72.28" fill="#0b0f0c" fill-opacity="0.92"/><circle cx="2058.9" cy="1007.37" r="33.6" fill="#5c7d5b" fill-opacity="0.16"/><circle cx="2035.57" cy="1011.85" r="23.48" fill="#5c7d5b" fill-opacity="0.16"/><circle cx="2035.95" cy="1000.6" r="28.64" fill="#5c7d5b" fill-opacity="0.16"/><circle cx="1697.53" cy="1084.29" r="58.77" fill="#0b0f0c" fill-opacity="0.92"/><circle cx="1668.59" cy="1085.21" r="55" fill="#0b0f0c" fill-opacity="0.92"/><circle cx="1623.81" cy="1098.46" r="64.01" fill="#0b0f0c" fill-opacity="0.92"/><circle cx="1630.89" cy="1069.92" r="77.78" fill="#0b0f0c" fill-opacity="0.92"/><circle cx="1665" cy="1053.07" r="64.78" fill="#0b0f0c" fill-opacity="0.92"/><circle cx="1659.16" cy="1043.29" r="44.06" fill="#5c7d5b" fill-opacity="0.16"/><circle cx="1615.4" cy="1053.88" r="27.64" fill="#5c7d5b" fill-opacity="0.16"/><circle cx="1624.8" cy="1038.54" r="33.64" fill="#5c7d5b" fill-opacity="0.16"/><circle cx="792.91" cy="1134.48" r="96.49" fill="#0b0f0c" fill-opacity="0.92"/><circle cx="777.87" cy="1155.15" r="81.08" fill="#0b0f0c" fill-opacity="0.92"/><circle cx="732.31" cy="1148.13" r="71.86" fill="#0b0f0c" fill-opacity="0.92"/><circle cx="720.34" cy="1125.48" r="74.27" fill="#0b0f0c" fill-opacity="0.92"/><circle cx="768.15" cy="1113.75" r="79.4" fill="#0b0f0c" fill-opacity="0.92"/><circle cx="749.15" cy="1093.21" r="50.65" fill="#5c7d5b" fill-opacity="0.16"/><circle cx="719.84" cy="1108.76" r="33.92" fill="#5c7d5b" fill-opacity="0.16"/><circle cx="724.31" cy="1079.47" r="48.2" fill="#5c7d5b" fill-opacity="0.16"/><circle cx="2315.32" cy="1140.55" r="98.18" fill="#0b0f0c" fill-opacity="0.92"/><circle cx="2279.35" cy="1144.23" r="104.21" fill="#0b0f0c" fill-opacity="0.92"/><circle cx="2218.8" cy="1140" r="104.71" fill="#0b0f0c" fill-opacity="0.92"/><circle cx="2239.51" cy="1110.54" r="82.69" fill="#0b0f0c" fill-opacity="0.92"/><circle cx="2275" cy="1101.04" r="107.09" fill="#0b0f0c" fill-opacity="0.92"/><circle cx="2244.89" cy="1092.45" r="34.78" fill="#5c7d5b" fill-opacity="0.16"/><circle cx="2220.77" cy="1103.62" r="41.56" fill="#5c7d5b" fill-opacity="0.16"/><circle cx="2224.22" cy="1082.46" r="41.76" fill="#5c7d5b" fill-opacity="0.16"/><circle cx="188" cy="1172.16" r="111.35" fill="#0b0f0c" fill-opacity="0.92"/><circle cx="160.04" cy="1197.51" r="97.66" fill="#0b0f0c" fill-opacity="0.92"/><circle cx="119.06" cy="1191.27" r="92.6" fill="#0b0f0c" fill-opacity="0.92"/><circle cx="118.92" cy="1162.07" r="103.04" fill="#0b0f0c" fill-opacity="0.92"/><circle cx="143.91" cy="1142.79" r="78.7" fill="#0b0f0c" fill-opacity="0.92"/><circle cx="129.07" cy="1140.16" r="56.11" fill="#5c7d5b" fill-opacity="0.16"/><circle cx="100.98" cy="1147.46" r="41.32" fill="#5c7d5b" fill-opacity="0.16"/><circle cx="104.42" cy="1132.22" r="56.33" fill="#5c7d5b" fill-opacity="0.16"/><ellipse cx="636" cy="1178" rx="300" ry="78" fill="#0e0f12"/><g clip-path="url(#cat-sustainable-waterclip)"><rect x="383.58" y="1120" width="178.22" height="1.2" fill="#a8bfa6" fill-opacity="0.084"/><rect x="704.63" y="1121.02" width="69.15" height="1.4" fill="#a8bfa6" fill-opacity="0.098"/><rect x="751.87" y="1124.1" width="74.7" height="1.6" fill="#a8bfa6" fill-opacity="0.112"/><rect x="415.5" y="1129.22" width="112.34" height="1.8" fill="#a8bfa6" fill-opacity="0.127"/><rect x="412.59" y="1136.4" width="134.3" height="2" fill="#a8bfa6" fill-opacity="0.141"/><rect x="522.95" y="1145.62" width="146.83" height="2.2" fill="#a8bfa6" fill-opacity="0.155"/><rect x="417.27" y="1156.89" width="154.35" height="2.4" fill="#a8bfa6" fill-opacity="0.169"/><rect x="374.7" y="1170.21" width="236.16" height="2.6" fill="#a8bfa6" fill-opacity="0.183"/><rect x="658.02" y="1185.59" width="180.19" height="2.8" fill="#a8bfa6" fill-opacity="0.197"/><rect x="632.19" y="1203.01" width="184.66" height="3" fill="#a8bfa6" fill-opacity="0.212"/><rect x="589.9" y="1222.48" width="94.79" height="3.2" fill="#a8bfa6" fill-opacity="0.226"/><rect x="457.31" y="1244" width="241.66" height="3.4" fill="#a8bfa6" fill-opacity="0.24"/></g><ellipse cx="636" cy="1178" rx="300" ry="78" fill="none" stroke="#7d9d7b" stroke-width="2" stroke-opacity="0.3"/><path d="M -260 1640 Q 620 1430 1180 1320 Q 1760 1212 2480 1186" fill="none" stroke="#2b2f36" stroke-width="34" stroke-opacity="0.55" stroke-linecap="round"/><path d="M -260 1640 Q 620 1430 1180 1320 Q 1760 1212 2480 1186" fill="none" stroke="#7d9d7b" stroke-width="2" stroke-opacity="0.24" stroke-dasharray="22 26"/><rect x="-278.09" y="1513.5" width="2.6" height="45.03" fill="#5c7d5b" fill-opacity="0.2"/><rect x="-190.91" y="1724.43" width="2.6" height="29.08" fill="#5c7d5b" fill-opacity="0.2"/><rect x="-80.47" y="1547.34" width="2.6" height="58.71" fill="#5c7d5b" fill-opacity="0.2"/><rect x="21.15" y="1471.1" width="2.6" height="57.08" fill="#5c7d5b" fill-opacity="0.2"/><rect x="164.4" y="1714.94" width="2.6" height="55.71" fill="#5c7d5b" fill-opacity="0.2"/><rect x="256.64" y="1636.6" width="2.6" height="52.08" fill="#5c7d5b" fill-opacity="0.2"/><rect x="386.9" y="1587.33" width="2.6" height="29.55" fill="#5c7d5b" fill-opacity="0.2"/><rect x="484.38" y="1467.05" width="2.6" height="28.23" fill="#5c7d5b" fill-opacity="0.2"/><rect x="589.84" y="1590.02" width="2.6" height="62.12" fill="#5c7d5b" fill-opacity="0.2"/><rect x="689.05" y="1683.91" width="2.6" height="50.7" fill="#5c7d5b" fill-opacity="0.2"/><rect x="824.12" y="1719.82" width="2.6" height="30.3" fill="#5c7d5b" fill-opacity="0.2"/><rect x="934.67" y="1577.62" width="2.6" height="60.38" fill="#5c7d5b" fill-opacity="0.2"/><rect x="1061.82" y="1693.51" width="2.6" height="52.74" fill="#5c7d5b" fill-opacity="0.2"/><rect x="1166.97" y="1651.07" width="2.6" height="26.73" fill="#5c7d5b" fill-opacity="0.2"/><rect x="1250.3" y="1556.97" width="2.6" height="30.48" fill="#5c7d5b" fill-opacity="0.2"/><rect x="1405.47" y="1584.77" width="2.6" height="44.32" fill="#5c7d5b" fill-opacity="0.2"/><rect x="1502.43" y="1552.56" width="2.6" height="50.32" fill="#5c7d5b" fill-opacity="0.2"/><rect x="1594.76" y="1531.29" width="2.6" height="45.71" fill="#5c7d5b" fill-opacity="0.2"/><rect x="1741.54" y="1543.25" width="2.6" height="36.3" fill="#5c7d5b" fill-opacity="0.2"/><rect x="1838.59" y="1597.02" width="2.6" height="51.85" fill="#5c7d5b" fill-opacity="0.2"/><rect x="1920.42" y="1752.48" width="2.6" height="33.7" fill="#5c7d5b" fill-opacity="0.2"/><rect x="2039.25" y="1713.67" width="2.6" height="45.33" fill="#5c7d5b" fill-opacity="0.2"/><rect x="2166.1" y="1546.92" width="2.6" height="35.35" fill="#5c7d5b" fill-opacity="0.2"/><rect x="2275.76" y="1676.69" width="2.6" height="51.58" fill="#5c7d5b" fill-opacity="0.2"/><rect x="2392.14" y="1599.97" width="2.6" height="30.53" fill="#5c7d5b" fill-opacity="0.2"/><rect x="2477.32" y="1631.71" width="2.6" height="56.89" fill="#5c7d5b" fill-opacity="0.2"/></g><rect x="0" y="0" width="1200" height="1500" fill="#7d9d7b" fill-opacity="0.06"/><rect x="0" y="0" width="1200" height="1500" fill="url(#cat-sustainable-grid)" opacity="0.05"/><rect x="0" y="0" width="1200" height="1500" fill="url(#cat-sustainable-vignette)"/><rect x="0" y="0" width="1200" height="1500" fill="#060607" filter="url(#cat-sustainable-grain)" opacity="0.13"/></svg>
