<svg xmlns="http://www.w3.org/2000/svg" width="1920" height="1080" viewBox="0 0 1920 1080" preserveAspectRatio="xMidYMid slice" role="img" aria-labelledby="garden-court-hero-title"><title id="garden-court-hero-title">Garden Court — abstract rendering of a plotted development set into open land</title><desc>Generated stand-in artwork: abstract rendering of a plotted development set into open land. Not a photograph of the property.</desc><defs><linearGradient id="garden-court-hero-ground" gradientUnits="userSpaceOnUse" x1="0" y1="820" x2="0" y2="2900"><stop offset="0" stop-color="#0e0f12"/><stop offset="0.42" stop-color="#121317"/><stop offset="1" stop-color="#121317"/></linearGradient><linearGradient id="garden-court-hero-road" gradientUnits="userSpaceOnUse" x1="0" y1="870" x2="0" y2="1424.7"><stop offset="0" stop-color="#191b20" stop-opacity="0.5"/><stop offset="0.55" stop-color="#212429" stop-opacity="0.8"/><stop offset="1" stop-color="#2b2f36" stop-opacity="0.85"/></linearGradient><linearGradient id="garden-court-hero-sky" gradientUnits="userSpaceOnUse" x1="0" y1="0" x2="0" y2="1080"><stop offset="0" stop-color="#060607"/><stop offset="0.02" stop-color="#0b0b0e"/><stop offset="0.433" stop-color="#191410"/><stop offset="1" stop-color="#0a0a0c"/></linearGradient><radialGradient id="garden-court-hero-glow" gradientUnits="userSpaceOnUse" cx="1428" cy="414" r="1766.4"><stop offset="0" stop-color="#c9a961" stop-opacity="0.38"/><stop offset="0.3" stop-color="#c9a961" stop-opacity="0.16"/><stop offset="0.66" stop-color="#c9a961" stop-opacity="0.046"/><stop offset="1" stop-color="#c9a961" stop-opacity="0"/></radialGradient><linearGradient id="garden-court-hero-haze" gradientUnits="userSpaceOnUse" x1="0" y1="144" x2="0" y2="640.8"><stop offset="0" stop-color="#5c7d5b" stop-opacity="0"/><stop offset="0.62" stop-color="#5c7d5b" stop-opacity="0.22"/><stop offset="0.82" stop-color="#5c7d5b" stop-opacity="0.11"/><stop offset="1" stop-color="#5c7d5b" stop-opacity="0"/></linearGradient><pattern id="garden-court-hero-grid" width="18" height="18" patternUnits="userSpaceOnUse"><rect x="0" y="0" width="1" height="18" fill="#f5f3ee" fill-opacity="0.5"/></pattern><radialGradient id="garden-court-hero-vignette" cx="0.5" cy="0.46" r="0.78"><stop offset="0.3" stop-color="#000000" stop-opacity="0"/><stop offset="0.68" stop-color="#000000" stop-opacity="0.26"/><stop offset="1" stop-color="#060607" stop-opacity="0.82"/></radialGradient><filter id="garden-court-hero-grain" x="-2%" y="-2%" width="104%" height="104%" color-interpolation-filters="sRGB"><feTurbulence type="fractalNoise" baseFrequency="0.82" numOctaves="3" seed="11" stitchTiles="stitch" result="noise"/><feColorMatrix in="noise" type="matrix" values="0 0 0 0 1 0 0 0 0 1 0 0 0 0 1 0.9 0 0 0 -0.36"/></filter></defs><rect x="0" y="0" width="1920" height="1080" fill="url(#garden-court-hero-sky)"/><rect x="0" y="0" width="1920" height="1080" fill="url(#garden-court-hero-glow)"/><rect x="0" y="0" width="1920" height="1080" fill="url(#garden-court-hero-haze)"/><g transform="translate(-120 -270) scale(0.9)"><polygon points="-1800,688.3 -1550,721.3 -1300,741.8 -1050,765.8 -800,771.8 -550,753.2 -300,748.7 -50,764.7 200,773.5 450,783.6 700,801.3 950,792.4 1200,753.1 1450,721 1700,697.1 1950,670 2200,666.1 2450,687.8 2700,695.2 2950,686.9 3200,685.8 3450,678 3700,661.2 3950,672.5 4200,710.6 4450,740.7 4650,2900 -1800,2900" fill="#0e0f12"/><rect x="-1800" y="820" width="6200" height="2080" fill="url(#garden-court-hero-ground)"/><path d="M -1800 854 q 45 -71 90.1 0 q 30.5 -78.5 60.9 0 q 54.3 -80.1 108.7 0 q 51.8 -47.2 103.6 0 q 63.7 -35.5 127.5 0 q 36.8 -74.8 73.5 0 q 30.6 -60.4 61.1 0 q 44.4 -59.8 88.8 0 q 30 -76.7 60.1 0 q 64.8 -75.1 129.5 0 q 57.4 -72.9 114.9 0 q 65.7 -57.3 131.5 0 q 57.1 -33.4 114.2 0 q 55.2 -66.6 110.4 0 q 30.1 -45.7 60.2 0 q 62.1 -56.6 124.1 0 q 60.7 -71.6 121.4 0 q 43.4 -81.7 86.7 0 q 46 -74.1 92.1 0 q 43.6 -75.1 87.3 0 q 35.8 -55.4 71.6 0 q 43 -73.8 85.9 0 q 33.8 -67.9 67.6 0 q 44.6 -40 89.3 0 q 46.9 -78.9 93.8 0 q 41.6 -79.1 83.1 0 q 48.9 -77 97.7 0 q 38.8 -38.4 77.6 0 q 60 -41.9 120.1 0 q 43.7 -82.9 87.3 0 q 39.9 -33.4 79.8 0 q 57.2 -38.4 114.5 0 q 60.7 -65.7 121.5 0 q 64.9 -43.1 129.8 0 q 30.2 -37.3 60.3 0 q 53.3 -63.7 106.6 0 q 37.7 -41.9 75.4 0 q 64.5 -38.2 129.1 0 q 59 -46.1 118.1 0 q 55 -55.6 110 0 q 60.2 -46.7 120.5 0 q 42.9 -75.5 85.7 0 q 66.2 -55.2 132.4 0 q 39.3 -48.2 78.5 0 q 54.4 -42 108.9 0 q 38.2 -51.2 76.3 0 q 33.3 -44.7 66.5 0 q 36 -49.8 71.9 0 q 47.4 -74.7 94.9 0 q 47.9 -58.1 95.8 0 q 45.8 -68.2 91.7 0 q 37 -44.8 74 0 q 30.3 -70 60.6 0 q 63.4 -78.3 126.8 0 q 49.5 -78.5 98.9 0 q 35.2 -36.2 70.4 0 q 30.4 -65.1 60.7 0 q 38.7 -44.8 77.4 0 q 44.7 -55.8 89.5 0 q 56.9 -70.1 113.9 0 q 48.5 -35.9 97.1 0 q 29.6 -72.5 59.1 0 q 35.9 -64.7 71.8 0 q 39.2 -66.6 78.4 0 q 29.6 -56.2 59.2 0 q 60.5 -74.5 120.9 0 q 61 -66.4 121.9 0 L 4469.5 1314 L -1800 1314 Z" fill="#0a0c0c"/><polygon points="995.3,1424.7 1404.7,1424.7 1216.9,870 1183.1,870" fill="url(#garden-court-hero-road)"/><line x1="1200" y1="1424.7" x2="1200" y2="1359.9" stroke="#7d9d7b" stroke-width="11.6" stroke-opacity="0.34"/><line x1="1200" y1="1307.6" x2="1200" y2="1255.4" stroke="#7d9d7b" stroke-width="9.4" stroke-opacity="0.34"/><line x1="1200" y1="1213.2" x2="1200" y2="1171.1" stroke="#7d9d7b" stroke-width="7.6" stroke-opacity="0.34"/><line x1="1200" y1="1137.1" x2="1200" y2="1103.2" stroke="#7d9d7b" stroke-width="6.1" stroke-opacity="0.34"/><line x1="1200" y1="1075.8" x2="1200" y2="1048.3" stroke="#7d9d7b" stroke-width="4.9" stroke-opacity="0.34"/><line x1="1200" y1="1026.3" x2="1200" y2="1004.2" stroke="#7d9d7b" stroke-width="4" stroke-opacity="0.34"/><line x1="1200" y1="986.3" x2="1200" y2="968.5" stroke="#7d9d7b" stroke-width="3.2" stroke-opacity="0.34"/><line x1="1200" y1="954.1" x2="1200" y2="939.8" stroke="#7d9d7b" stroke-width="2.6" stroke-opacity="0.34"/><line x1="1200" y1="928.2" x2="1200" y2="916.6" stroke="#7d9d7b" stroke-width="2.1" stroke-opacity="0.34"/><line x1="1200" y1="907.2" x2="1200" y2="897.9" stroke="#7d9d7b" stroke-width="1.7" stroke-opacity="0.34"/><line x1="1200" y1="890.4" x2="1200" y2="882.8" stroke="#7d9d7b" stroke-width="1.4" stroke-opacity="0.34"/><line x1="1200" y1="876.7" x2="1200" y2="870.7" stroke="#7d9d7b" stroke-width="1.1" stroke-opacity="0.34"/><line x1="-1079.1" y1="1424.7" x2="1011.5" y2="870" stroke="#5a616b" stroke-width="1.6" stroke-opacity="0.4"/><line x1="-753.5" y1="1424.7" x2="1038.5" y2="870" stroke="#5a616b" stroke-width="1.6" stroke-opacity="0.2"/><line x1="-427.9" y1="1424.7" x2="1065.4" y2="870" stroke="#5a616b" stroke-width="1.6" stroke-opacity="0.2"/><line x1="-102.3" y1="1424.7" x2="1092.3" y2="870" stroke="#5a616b" stroke-width="1.6" stroke-opacity="0.2"/><line x1="223.3" y1="1424.7" x2="1119.2" y2="870" stroke="#5a616b" stroke-width="1.6" stroke-opacity="0.2"/><line x1="548.8" y1="1424.7" x2="1146.2" y2="870" stroke="#5a616b" stroke-width="1.6" stroke-opacity="0.2"/><line x1="874.4" y1="1424.7" x2="1173.1" y2="870" stroke="#5a616b" stroke-width="1.6" stroke-opacity="0.2"/><line x1="1525.6" y1="1424.7" x2="1226.9" y2="870" stroke="#5a616b" stroke-width="1.6" stroke-opacity="0.2"/><line x1="1851.2" y1="1424.7" x2="1253.8" y2="870" stroke="#5a616b" stroke-width="1.6" stroke-opacity="0.2"/><line x1="2176.7" y1="1424.7" x2="1280.8" y2="870" stroke="#5a616b" stroke-width="1.6" stroke-opacity="0.2"/><line x1="2502.3" y1="1424.7" x2="1307.7" y2="870" stroke="#5a616b" stroke-width="1.6" stroke-opacity="0.2"/><line x1="2827.9" y1="1424.7" x2="1334.6" y2="870" stroke="#5a616b" stroke-width="1.6" stroke-opacity="0.2"/><line x1="3153.5" y1="1424.7" x2="1361.5" y2="870" stroke="#5a616b" stroke-width="1.6" stroke-opacity="0.2"/><line x1="3479.1" y1="1424.7" x2="1388.5" y2="870" stroke="#5a616b" stroke-width="1.6" stroke-opacity="0.4"/><line x1="-1079.1" y1="1424.7" x2="3479.1" y2="1424.7" stroke="#5a616b" stroke-width="5.6" stroke-opacity="0.22"/><line x1="-645.4" y1="1309.6" x2="3045.4" y2="1309.6" stroke="#5a616b" stroke-width="4.5" stroke-opacity="0.22"/><line x1="-294.3" y1="1216.4" x2="2694.3" y2="1216.4" stroke="#5a616b" stroke-width="3.7" stroke-opacity="0.22"/><line x1="-9.9" y1="1141" x2="2409.9" y2="1141" stroke="#5a616b" stroke-width="3" stroke-opacity="0.22"/><line x1="220.3" y1="1079.9" x2="2179.7" y2="1079.9" stroke="#5a616b" stroke-width="2.4" stroke-opacity="0.22"/><line x1="406.7" y1="1030.5" x2="1993.3" y2="1030.5" stroke="#5a616b" stroke-width="1.9" stroke-opacity="0.22"/><line x1="557.7" y1="990.4" x2="1842.3" y2="990.4" stroke="#5a616b" stroke-width="1.6" stroke-opacity="0.22"/><line x1="679.9" y1="958" x2="1720.1" y2="958" stroke="#5a616b" stroke-width="1.3" stroke-opacity="0.22"/><line x1="778.9" y1="931.7" x2="1621.1" y2="931.7" stroke="#5a616b" stroke-width="1" stroke-opacity="0.22"/><line x1="859" y1="910.5" x2="1541" y2="910.5" stroke="#5a616b" stroke-width="1" stroke-opacity="0.22"/><line x1="923.9" y1="893.3" x2="1476.1" y2="893.3" stroke="#5a616b" stroke-width="1" stroke-opacity="0.22"/><line x1="976.4" y1="879.3" x2="1423.6" y2="879.3" stroke="#5a616b" stroke-width="1" stroke-opacity="0.22"/><rect x="-1080.5" y="1373.5" width="2.8" height="51.2" fill="#7d9d7b" fill-opacity="0.34"/><rect x="-429.3" y="1373.5" width="2.8" height="51.2" fill="#7d9d7b" fill-opacity="0.34"/><rect x="221.9" y="1373.5" width="2.8" height="51.2" fill="#7d9d7b" fill-opacity="0.34"/><rect x="873" y="1373.5" width="2.8" height="51.2" fill="#7d9d7b" fill-opacity="0.34"/><rect x="1524.2" y="1373.5" width="2.8" height="51.2" fill="#7d9d7b" fill-opacity="0.34"/><rect x="2175.3" y="1373.5" width="2.8" height="51.2" fill="#7d9d7b" fill-opacity="0.34"/><rect x="2826.5" y="1373.5" width="2.8" height="51.2" fill="#7d9d7b" fill-opacity="0.34"/><rect x="3477.7" y="1373.5" width="2.8" height="51.2" fill="#7d9d7b" fill-opacity="0.34"/><rect x="-646.8" y="1268.2" width="2.8" height="41.4" fill="#7d9d7b" fill-opacity="0.34"/><rect x="-119.5" y="1268.2" width="2.8" height="41.4" fill="#7d9d7b" fill-opacity="0.34"/><rect x="407.7" y="1268.2" width="2.8" height="41.4" fill="#7d9d7b" fill-opacity="0.34"/><rect x="935" y="1268.2" width="2.8" height="41.4" fill="#7d9d7b" fill-opacity="0.34"/><rect x="1462.2" y="1268.2" width="2.8" height="41.4" fill="#7d9d7b" fill-opacity="0.34"/><rect x="1989.5" y="1268.2" width="2.8" height="41.4" fill="#7d9d7b" fill-opacity="0.34"/><rect x="2516.7" y="1268.2" width="2.8" height="41.4" fill="#7d9d7b" fill-opacity="0.34"/><rect x="3044" y="1268.2" width="2.8" height="41.4" fill="#7d9d7b" fill-opacity="0.34"/><rect x="-295.7" y="1182.9" width="2.8" height="33.5" fill="#7d9d7b" fill-opacity="0.34"/><rect x="131.3" y="1182.9" width="2.8" height="33.5" fill="#7d9d7b" fill-opacity="0.34"/><rect x="558.2" y="1182.9" width="2.8" height="33.5" fill="#7d9d7b" fill-opacity="0.34"/><rect x="985.1" y="1182.9" width="2.8" height="33.5" fill="#7d9d7b" fill-opacity="0.34"/><rect x="1412.1" y="1182.9" width="2.8" height="33.5" fill="#7d9d7b" fill-opacity="0.34"/><rect x="1839" y="1182.9" width="2.8" height="33.5" fill="#7d9d7b" fill-opacity="0.34"/><rect x="2265.9" y="1182.9" width="2.8" height="33.5" fill="#7d9d7b" fill-opacity="0.34"/><rect x="2692.9" y="1182.9" width="2.8" height="33.5" fill="#7d9d7b" fill-opacity="0.34"/><rect x="-11.3" y="1113.8" width="2.8" height="27.2" fill="#7d9d7b" fill-opacity="0.34"/><rect x="334.4" y="1113.8" width="2.8" height="27.2" fill="#7d9d7b" fill-opacity="0.34"/><rect x="680.1" y="1113.8" width="2.8" height="27.2" fill="#7d9d7b" fill-opacity="0.34"/><rect x="1025.8" y="1113.8" width="2.8" height="27.2" fill="#7d9d7b" fill-opacity="0.34"/><rect x="1371.4" y="1113.8" width="2.8" height="27.2" fill="#7d9d7b" fill-opacity="0.34"/><rect x="1717.1" y="1113.8" width="2.8" height="27.2" fill="#7d9d7b" fill-opacity="0.34"/><rect x="2062.8" y="1113.8" width="2.8" height="27.2" fill="#7d9d7b" fill-opacity="0.34"/><rect x="2408.5" y="1113.8" width="2.8" height="27.2" fill="#7d9d7b" fill-opacity="0.34"/><rect x="218.9" y="1057.9" width="2.8" height="22" fill="#7d9d7b" fill-opacity="0.34"/><rect x="498.8" y="1057.9" width="2.8" height="22" fill="#7d9d7b" fill-opacity="0.34"/><rect x="778.7" y="1057.9" width="2.8" height="22" fill="#7d9d7b" fill-opacity="0.34"/><rect x="1058.6" y="1057.9" width="2.8" height="22" fill="#7d9d7b" fill-opacity="0.34"/><rect x="1338.6" y="1057.9" width="2.8" height="22" fill="#7d9d7b" fill-opacity="0.34"/><rect x="1618.5" y="1057.9" width="2.8" height="22" fill="#7d9d7b" fill-opacity="0.34"/><rect x="1898.4" y="1057.9" width="2.8" height="22" fill="#7d9d7b" fill-opacity="0.34"/><rect x="2178.3" y="1057.9" width="2.8" height="22" fill="#7d9d7b" fill-opacity="0.34"/><rect x="405.3" y="1012.7" width="2.8" height="17.8" fill="#7d9d7b" fill-opacity="0.34"/><rect x="632" y="1012.7" width="2.8" height="17.8" fill="#7d9d7b" fill-opacity="0.34"/><rect x="858.6" y="1012.7" width="2.8" height="17.8" fill="#7d9d7b" fill-opacity="0.34"/><rect x="1085.3" y="1012.7" width="2.8" height="17.8" fill="#7d9d7b" fill-opacity="0.34"/><rect x="1311.9" y="1012.7" width="2.8" height="17.8" fill="#7d9d7b" fill-opacity="0.34"/><rect x="1538.6" y="1012.7" width="2.8" height="17.8" fill="#7d9d7b" fill-opacity="0.34"/><rect x="1765.2" y="1012.7" width="2.8" height="17.8" fill="#7d9d7b" fill-opacity="0.34"/><rect x="1991.9" y="1012.7" width="2.8" height="17.8" fill="#7d9d7b" fill-opacity="0.34"/><rect x="556.3" y="976" width="2.8" height="14.4" fill="#7d9d7b" fill-opacity="0.34"/><rect x="739.8" y="976" width="2.8" height="14.4" fill="#7d9d7b" fill-opacity="0.34"/><rect x="923.3" y="976" width="2.8" height="14.4" fill="#7d9d7b" fill-opacity="0.34"/><rect x="1106.8" y="976" width="2.8" height="14.4" fill="#7d9d7b" fill-opacity="0.34"/><rect x="1290.4" y="976" width="2.8" height="14.4" fill="#7d9d7b" fill-opacity="0.34"/><rect x="1473.9" y="976" width="2.8" height="14.4" fill="#7d9d7b" fill-opacity="0.34"/><rect x="1657.4" y="976" width="2.8" height="14.4" fill="#7d9d7b" fill-opacity="0.34"/><rect x="1840.9" y="976" width="2.8" height="14.4" fill="#7d9d7b" fill-opacity="0.34"/><rect x="-1223.3" y="1289.8" width="9.3" height="134.9" fill="#060607" fill-opacity="0.85"/><rect x="-853.6" y="1218.1" width="7.9" height="114.3" fill="#060607" fill-opacity="0.85"/><rect x="-540.3" y="1157.4" width="6.7" height="96.9" fill="#060607" fill-opacity="0.85"/><rect x="-274.9" y="1105.9" width="5.7" height="82.1" fill="#060607" fill-opacity="0.85"/><rect x="-49.9" y="1062.3" width="4.8" height="69.6" fill="#060607" fill-opacity="0.85"/><rect x="140.8" y="1025.3" width="4.1" height="59" fill="#060607" fill-opacity="0.85"/><rect x="302.3" y="994" width="3.4" height="50" fill="#060607" fill-opacity="0.85"/><rect x="439.3" y="967.5" width="2.9" height="42.3" fill="#060607" fill-opacity="0.85"/><rect x="555.3" y="945" width="2.5" height="35.9" fill="#060607" fill-opacity="0.85"/><rect x="653.7" y="925.9" width="2.1" height="30.4" fill="#060607" fill-opacity="0.85"/><rect x="737" y="909.8" width="1.8" height="25.8" fill="#060607" fill-opacity="0.85"/><rect x="807.6" y="896.1" width="1.5" height="21.8" fill="#060607" fill-opacity="0.85"/><rect x="867.5" y="884.5" width="1.3" height="18.5" fill="#060607" fill-opacity="0.85"/><rect x="918.2" y="874.6" width="1.1" height="15.7" fill="#060607" fill-opacity="0.85"/><rect x="961.1" y="866.3" width="1" height="13.3" fill="#060607" fill-opacity="0.85"/><rect x="997.5" y="859.2" width="1" height="11.3" fill="#060607" fill-opacity="0.85"/><line x1="-1218.6" y1="1317.7" x2="1000" y2="861.2" stroke="#5a616b" stroke-width="1.8" stroke-opacity="0.28"/><rect x="3614" y="1289.8" width="9.3" height="134.9" fill="#060607" fill-opacity="0.85"/><rect x="3245.7" y="1218.1" width="7.9" height="114.3" fill="#060607" fill-opacity="0.85"/><rect x="2933.7" y="1157.4" width="6.7" height="96.9" fill="#060607" fill-opacity="0.85"/><rect x="2669.2" y="1105.9" width="5.7" height="82.1" fill="#060607" fill-opacity="0.85"/><rect x="2445.1" y="1062.3" width="4.8" height="69.6" fill="#060607" fill-opacity="0.85"/><rect x="2255.2" y="1025.3" width="4.1" height="59" fill="#060607" fill-opacity="0.85"/><rect x="2094.2" y="994" width="3.4" height="50" fill="#060607" fill-opacity="0.85"/><rect x="1957.8" y="967.5" width="2.9" height="42.3" fill="#060607" fill-opacity="0.85"/><rect x="1842.2" y="945" width="2.5" height="35.9" fill="#060607" fill-opacity="0.85"/><rect x="1744.2" y="925.9" width="2.1" height="30.4" fill="#060607" fill-opacity="0.85"/><rect x="1661.2" y="909.8" width="1.8" height="25.8" fill="#060607" fill-opacity="0.85"/><rect x="1590.9" y="896.1" width="1.5" height="21.8" fill="#060607" fill-opacity="0.85"/><rect x="1531.2" y="884.5" width="1.3" height="18.5" fill="#060607" fill-opacity="0.85"/><rect x="1480.7" y="874.6" width="1.1" height="15.7" fill="#060607" fill-opacity="0.85"/><rect x="1437.9" y="866.3" width="1" height="13.3" fill="#060607" fill-opacity="0.85"/><rect x="1401.5" y="859.2" width="1" height="11.3" fill="#060607" fill-opacity="0.85"/><line x1="3618.6" y1="1317.7" x2="1400" y2="861.2" stroke="#5a616b" stroke-width="1.8" stroke-opacity="0.28"/><rect x="-1461.6" y="1034" width="20.9" height="390.7" fill="#060907"/><circle cx="-1290.4" cy="982.1" r="247" fill="#060907" fill-opacity="1"/><circle cx="-1452.7" cy="1013.4" r="301.1" fill="#060907" fill-opacity="1"/><circle cx="-1633.1" cy="954.1" r="255.3" fill="#060907" fill-opacity="1"/><circle cx="-1480.8" cy="888.3" r="268.7" fill="#060907" fill-opacity="1"/><circle cx="-1149.7" cy="1107.4" r="192.8" fill="#060907" fill-opacity="1"/><circle cx="-1285.9" cy="1117.4" r="151.2" fill="#060907" fill-opacity="1"/><circle cx="-1271.4" cy="1038.9" r="178.9" fill="#060907" fill-opacity="1"/><rect x="3840.7" y="929.5" width="20.9" height="495.1" fill="#060907"/><circle cx="3962.3" cy="827" r="253.4" fill="#060907" fill-opacity="1"/><circle cx="3848.5" cy="934.7" r="300.4" fill="#060907" fill-opacity="1"/><circle cx="3648.5" cy="819.7" r="341.8" fill="#060907" fill-opacity="1"/><circle cx="3780.2" cy="735.7" r="327.2" fill="#060907" fill-opacity="1"/><circle cx="4292.9" cy="1007.3" r="173.6" fill="#060907" fill-opacity="1"/><circle cx="4068.5" cy="1052.8" r="274.2" fill="#060907" fill-opacity="1"/><circle cx="4096.8" cy="906" r="271.6" fill="#060907" fill-opacity="1"/><rect x="-879.4" y="923.5" width="16.4" height="368.9" fill="#060907"/><circle cx="-764.3" cy="879" r="287.3" fill="#060907" fill-opacity="1"/><circle cx="-894" cy="907" r="278.9" fill="#060907" fill-opacity="1"/><circle cx="-958.2" cy="867.3" r="282" fill="#060907" fill-opacity="1"/><circle cx="-831.4" cy="768.5" r="184.9" fill="#060907" fill-opacity="1"/><circle cx="-561.8" cy="947.8" r="126.1" fill="#060907" fill-opacity="1"/><circle cx="-688.2" cy="997.4" r="179.7" fill="#060907" fill-opacity="1"/><circle cx="-675.5" cy="947.9" r="132.2" fill="#060907" fill-opacity="1"/><rect x="3263" y="1026.1" width="16.4" height="266.3" fill="#060907"/><circle cx="3332.9" cy="987.5" r="177.6" fill="#060907" fill-opacity="1"/><circle cx="3237.5" cy="1055.5" r="196.3" fill="#060907" fill-opacity="1"/><circle cx="3168.2" cy="986.9" r="128.3" fill="#060907" fill-opacity="1"/><circle cx="3252.2" cy="946.8" r="200.9" fill="#060907" fill-opacity="1"/><circle cx="3484.6" cy="1056.5" r="123" fill="#060907" fill-opacity="1"/><circle cx="3414.2" cy="1081.6" r="146.9" fill="#060907" fill-opacity="1"/><circle cx="3408.2" cy="1029" r="144.7" fill="#060907" fill-opacity="1"/><rect x="-424.5" y="968.5" width="12.8" height="220.6" fill="#060907"/><circle cx="-341.1" cy="935" r="153.4" fill="#060907" fill-opacity="1"/><circle cx="-412.4" cy="956.1" r="125.5" fill="#060907" fill-opacity="1"/><circle cx="-521" cy="934.8" r="120.7" fill="#060907" fill-opacity="1"/><circle cx="-436.7" cy="902.7" r="122.1" fill="#060907" fill-opacity="1"/><circle cx="-255.3" cy="1006" r="90.5" fill="#060907" fill-opacity="1"/><circle cx="-311.7" cy="1016.5" r="91.9" fill="#060907" fill-opacity="1"/><circle cx="-311.7" cy="960.9" r="82.7" fill="#060907" fill-opacity="1"/><rect x="2811.8" y="935.6" width="12.8" height="253.5" fill="#060907"/><circle cx="2928.3" cy="915.2" r="176.8" fill="#060907" fill-opacity="1"/><circle cx="2795.1" cy="963.2" r="155" fill="#060907" fill-opacity="1"/><circle cx="2764" cy="884.7" r="123.2" fill="#060907" fill-opacity="1"/><circle cx="2804.6" cy="853.6" r="192.2" fill="#060907" fill-opacity="1"/><circle cx="2994.1" cy="972.3" r="102" fill="#060907" fill-opacity="1"/><circle cx="2942.3" cy="1000" r="98.9" fill="#060907" fill-opacity="1"/><circle cx="2927.4" cy="928.1" r="108.6" fill="#060907" fill-opacity="1"/><rect x="-69.2" y="850.7" width="10" height="257.6" fill="#060907"/><circle cx="35.4" cy="833.1" r="164.2" fill="#060907" fill-opacity="1"/><circle cx="-54.3" cy="834" r="142.1" fill="#060907" fill-opacity="1"/><circle cx="-140.6" cy="812.4" r="155.8" fill="#060907" fill-opacity="1"/><circle cx="-66.5" cy="760.5" r="155.1" fill="#060907" fill-opacity="1"/><circle cx="113.6" cy="878.3" r="107.9" fill="#060907" fill-opacity="1"/><circle cx="56.3" cy="931.1" r="120.2" fill="#060907" fill-opacity="1"/><circle cx="41.7" cy="854.4" r="103" fill="#060907" fill-opacity="1"/><rect x="2459.2" y="927.6" width="10" height="180.7" fill="#060907"/><circle cx="2537.4" cy="906.9" r="133.9" fill="#060907" fill-opacity="1"/><circle cx="2482" cy="936.7" r="124.1" fill="#060907" fill-opacity="1"/><circle cx="2381.7" cy="898.6" r="112.2" fill="#060907" fill-opacity="1"/><circle cx="2468.9" cy="875.8" r="106.6" fill="#060907" fill-opacity="1"/><circle cx="2587.5" cy="956.3" r="65.4" fill="#060907" fill-opacity="1"/><circle cx="2541" cy="965.1" r="85.3" fill="#060907" fill-opacity="1"/><circle cx="2554.9" cy="931.1" r="80.5" fill="#060907" fill-opacity="1"/><rect x="208.5" y="912.7" width="7.8" height="132.6" fill="#060907"/><circle cx="235.2" cy="888.9" r="93.9" fill="#060907" fill-opacity="1"/><circle cx="209.4" cy="910.3" r="89.5" fill="#060907" fill-opacity="1"/><circle cx="177" cy="884.4" r="86.1" fill="#060907" fill-opacity="1"/><circle cx="205.5" cy="864.4" r="102.9" fill="#060907" fill-opacity="1"/><circle cx="305.2" cy="930.2" r="64.4" fill="#060907" fill-opacity="1"/><circle cx="282.5" cy="940.4" r="60.1" fill="#060907" fill-opacity="1"/><circle cx="271.4" cy="916.2" r="54.1" fill="#060907" fill-opacity="1"/><rect x="2183.7" y="916.9" width="7.8" height="128.4" fill="#060907"/><circle cx="2232.4" cy="900.1" r="71.5" fill="#060907" fill-opacity="1"/><circle cx="2179.5" cy="930.8" r="82.8" fill="#060907" fill-opacity="1"/><circle cx="2142.8" cy="902.1" r="65.6" fill="#060907" fill-opacity="1"/><circle cx="2178.7" cy="879.3" r="99.6" fill="#060907" fill-opacity="1"/><circle cx="2302.8" cy="931.8" r="47.6" fill="#060907" fill-opacity="1"/><circle cx="2254.1" cy="944.4" r="67.2" fill="#060907" fill-opacity="1"/><circle cx="2241.7" cy="914.4" r="61.1" fill="#060907" fill-opacity="1"/><rect x="425.4" y="872.1" width="6.1" height="123.9" fill="#060907"/><circle cx="463" cy="850.4" r="93.6" fill="#060907" fill-opacity="1"/><circle cx="422.5" cy="876.3" r="92.3" fill="#060907" fill-opacity="1"/><circle cx="403.7" cy="847.2" r="60" fill="#060907" fill-opacity="1"/><circle cx="436.1" cy="825.9" r="69.6" fill="#060907" fill-opacity="1"/><circle cx="516" cy="884.5" r="45.9" fill="#060907" fill-opacity="1"/><circle cx="490" cy="903" r="66.1" fill="#060907" fill-opacity="1"/><circle cx="482.2" cy="865.8" r="59.8" fill="#060907" fill-opacity="1"/><rect x="1968.5" y="881.3" width="6.1" height="114.7" fill="#060907"/><circle cx="1997" cy="867.8" r="86.1" fill="#060907" fill-opacity="1"/><circle cx="1975" cy="876.1" r="64.9" fill="#060907" fill-opacity="1"/><circle cx="1945.1" cy="860.3" r="80.9" fill="#060907" fill-opacity="1"/><circle cx="1977.2" cy="836.6" r="67" fill="#060907" fill-opacity="1"/><circle cx="2069" cy="904" r="46.1" fill="#060907" fill-opacity="1"/><circle cx="2013.9" cy="911.4" r="50.9" fill="#060907" fill-opacity="1"/><circle cx="2027.5" cy="883.7" r="41.6" fill="#060907" fill-opacity="1"/><rect x="594.8" y="856.6" width="4.8" height="100.9" fill="#060907"/><circle cx="621.8" cy="840.2" r="66.6" fill="#060907" fill-opacity="1"/><circle cx="608.3" cy="857.9" r="50.5" fill="#060907" fill-opacity="1"/><circle cx="573.9" cy="843.9" r="54" fill="#060907" fill-opacity="1"/><circle cx="590.7" cy="828" r="56.5" fill="#060907" fill-opacity="1"/><circle cx="686.9" cy="875.7" r="53.2" fill="#060907" fill-opacity="1"/><circle cx="644.5" cy="885" r="52" fill="#060907" fill-opacity="1"/><circle cx="649.7" cy="860.2" r="48" fill="#060907" fill-opacity="1"/><rect x="1800.4" y="842.1" width="4.8" height="115.4" fill="#060907"/><circle cx="1844.1" cy="823.1" r="70.3" fill="#060907" fill-opacity="1"/><circle cx="1815.7" cy="843.4" r="85.7" fill="#060907" fill-opacity="1"/><circle cx="1758.1" cy="826.7" r="59.4" fill="#060907" fill-opacity="1"/><circle cx="1803.3" cy="810.9" r="85.3" fill="#060907" fill-opacity="1"/><circle cx="1891" cy="856.1" r="49.5" fill="#060907" fill-opacity="1"/><circle cx="1854.9" cy="865.1" r="56.4" fill="#060907" fill-opacity="1"/><circle cx="1857.7" cy="848.7" r="41.3" fill="#060907" fill-opacity="1"/><rect x="727.2" y="841.6" width="3.7" height="85.8" fill="#060907"/><circle cx="756.5" cy="826.7" r="50.8" fill="#060907" fill-opacity="1"/><circle cx="730.5" cy="838.4" r="42.3" fill="#060907" fill-opacity="1"/><circle cx="694.5" cy="830.1" r="63.9" fill="#060907" fill-opacity="1"/><circle cx="728.8" cy="816.3" r="53.6" fill="#060907" fill-opacity="1"/><circle cx="797.5" cy="857" r="38.9" fill="#060907" fill-opacity="1"/><circle cx="773.5" cy="863.5" r="47.8" fill="#060907" fill-opacity="1"/><circle cx="761" cy="839.4" r="46.8" fill="#060907" fill-opacity="1"/><rect x="1669.1" y="843.3" width="3.7" height="84.1" fill="#060907"/><circle cx="1702.4" cy="829.4" r="53.4" fill="#060907" fill-opacity="1"/><circle cx="1667.6" cy="850.9" r="41.1" fill="#060907" fill-opacity="1"/><circle cx="1642" cy="833.7" r="52.7" fill="#060907" fill-opacity="1"/><circle cx="1680" cy="815.2" r="52.8" fill="#060907" fill-opacity="1"/><circle cx="1744.9" cy="850.6" r="36.1" fill="#060907" fill-opacity="1"/><circle cx="1704.3" cy="866.1" r="36.8" fill="#060907" fill-opacity="1"/><circle cx="1709.8" cy="849.7" r="35.5" fill="#060907" fill-opacity="1"/><rect x="830.6" y="845.5" width="2.9" height="58.5" fill="#060907"/><circle cx="842" cy="834.3" r="35.2" fill="#060907" fill-opacity="1"/><circle cx="828.4" cy="843.3" r="45.6" fill="#060907" fill-opacity="1"/><circle cx="813.2" cy="833.2" r="38.6" fill="#060907" fill-opacity="1"/><circle cx="834.9" cy="821.7" r="39.4" fill="#060907" fill-opacity="1"/><circle cx="881.4" cy="849.4" r="27.4" fill="#060907" fill-opacity="1"/><circle cx="863.2" cy="859.3" r="24.3" fill="#060907" fill-opacity="1"/><circle cx="860.7" cy="846.6" r="31.4" fill="#060907" fill-opacity="1"/><rect x="1566.5" y="831.5" width="2.9" height="72.4" fill="#060907"/><circle cx="1585.3" cy="818" r="54.9" fill="#060907" fill-opacity="1"/><circle cx="1565.1" cy="830.1" r="50.2" fill="#060907" fill-opacity="1"/><circle cx="1552.1" cy="820.4" r="52.7" fill="#060907" fill-opacity="1"/><circle cx="1557.8" cy="802" r="48.5" fill="#060907" fill-opacity="1"/><circle cx="1630.7" cy="842.4" r="31" fill="#060907" fill-opacity="1"/><circle cx="1604.3" cy="849.3" r="25.4" fill="#060907" fill-opacity="1"/><circle cx="1598.6" cy="832.6" r="37.2" fill="#060907" fill-opacity="1"/><rect x="911.4" y="847" width="2.3" height="38.5" fill="#060907"/><circle cx="928.2" cy="840.4" r="29.2" fill="#060907" fill-opacity="1"/><circle cx="909.2" cy="848.1" r="21.4" fill="#060907" fill-opacity="1"/><circle cx="900.4" cy="843.1" r="23" fill="#060907" fill-opacity="1"/><circle cx="912.1" cy="835.1" r="26.1" fill="#060907" fill-opacity="1"/><circle cx="945.5" cy="852.9" r="16.3" fill="#060907" fill-opacity="1"/><circle cx="930.2" cy="858.2" r="15.7" fill="#060907" fill-opacity="1"/><circle cx="931.5" cy="849" r="16.4" fill="#060907" fill-opacity="1"/><rect x="1486.3" y="832.2" width="2.3" height="53.3" fill="#060907"/><circle cx="1507.4" cy="826.8" r="39.6" fill="#060907" fill-opacity="1"/><circle cx="1482.7" cy="831.8" r="27.7" fill="#060907" fill-opacity="1"/><circle cx="1478.6" cy="821.5" r="31.9" fill="#060907" fill-opacity="1"/><circle cx="1491.7" cy="816.6" r="35.5" fill="#060907" fill-opacity="1"/><circle cx="1535" cy="841.5" r="23.2" fill="#060907" fill-opacity="1"/><circle cx="1514" cy="842.9" r="26.8" fill="#060907" fill-opacity="1"/><circle cx="1510.9" cy="833" r="19.1" fill="#060907" fill-opacity="1"/><rect x="1313.6" y="870" width="281.8" height="68.2" fill="#131418"/><rect x="1296.7" y="860" width="315.6" height="10" fill="#191b20"/><rect x="1499.6" y="835.9" width="73.3" height="35.5" fill="#191b20"/><rect x="1370" y="887.7" width="24" height="31.4" fill="#e5d3a8" fill-opacity="0.355"/><rect x="1402.4" y="887.7" width="24" height="31.4" fill="#e5d3a8" fill-opacity="0.455"/><rect x="1434.8" y="887.7" width="24" height="31.4" fill="#e5d3a8" fill-opacity="0.355"/><rect x="1467.2" y="887.7" width="24" height="31.4" fill="#e5d3a8" fill-opacity="0.355"/><rect x="1592.5" y="870" width="3.4" height="68.2" fill="#e5d3a8" fill-opacity="0.5"/><rect x="878.1" y="991.9" width="62.5" height="234.4" fill="#212429"/><rect x="878.1" y="991.9" width="62.5" height="4" fill="#e5d3a8" fill-opacity="0.55"/><rect x="889.4" y="1071.6" width="12.5" height="93.8" fill="#e5d3a8" fill-opacity="0.46"/><rect x="1459.4" y="991.9" width="62.5" height="234.4" fill="#212429"/><rect x="1459.4" y="991.9" width="62.5" height="4" fill="#e5d3a8" fill-opacity="0.55"/><rect x="1470.6" y="1071.6" width="12.5" height="93.8" fill="#e5d3a8" fill-opacity="0.46"/><rect x="878.1" y="977.9" width="643.8" height="16" fill="#212429"/><rect x="878.1" y="977.9" width="643.8" height="3" fill="#e5d3a8" fill-opacity="0.5"/><rect x="2394.8" y="1246.4" width="4.9" height="27.2" fill="#7d9d7b" fill-opacity="0.26"/><rect x="1835" y="1066.3" width="2.8" height="17.6" fill="#7d9d7b" fill-opacity="0.26"/><rect x="1197.8" y="1116" width="3.4" height="11.4" fill="#7d9d7b" fill-opacity="0.26"/><rect x="1973.4" y="1020" width="2.3" height="15.6" fill="#7d9d7b" fill-opacity="0.26"/><rect x="1631.4" y="1229.9" width="4.7" height="16.2" fill="#7d9d7b" fill-opacity="0.26"/><rect x="2168.8" y="1135.9" width="3.6" height="21.6" fill="#7d9d7b" fill-opacity="0.26"/><rect x="1411.8" y="1010.7" width="2.2" height="14.6" fill="#7d9d7b" fill-opacity="0.26"/><rect x="149.3" y="1159.4" width="3.9" height="26.1" fill="#7d9d7b" fill-opacity="0.26"/><rect x="2518" y="1323.1" width="5.8" height="20.1" fill="#7d9d7b" fill-opacity="0.26"/><rect x="833.9" y="1309.2" width="5.6" height="37.6" fill="#7d9d7b" fill-opacity="0.26"/><rect x="827.8" y="1190.9" width="4.3" height="17.6" fill="#7d9d7b" fill-opacity="0.26"/><rect x="1812.7" y="1140.9" width="3.7" height="15.9" fill="#7d9d7b" fill-opacity="0.26"/><rect x="-394.9" y="1212.5" width="4.5" height="25.5" fill="#7d9d7b" fill-opacity="0.26"/><rect x="1549.7" y="1067.4" width="2.9" height="14.7" fill="#7d9d7b" fill-opacity="0.26"/><rect x="-1081.1" y="1366" width="6.3" height="38.1" fill="#7d9d7b" fill-opacity="0.26"/><rect x="1781.6" y="1157.4" width="3.9" height="17.6" fill="#7d9d7b" fill-opacity="0.26"/><rect x="820.6" y="1012.1" width="2.2" height="9.4" fill="#7d9d7b" fill-opacity="0.26"/><rect x="655.8" y="1280.7" width="5.3" height="24.5" fill="#7d9d7b" fill-opacity="0.26"/><rect x="1319.9" y="1418.7" width="6.9" height="35.4" fill="#7d9d7b" fill-opacity="0.26"/><rect x="376" y="1018.7" width="2.3" height="14.3" fill="#7d9d7b" fill-opacity="0.26"/><rect x="2088.9" y="1140" width="3.7" height="13.4" fill="#7d9d7b" fill-opacity="0.26"/><rect x="82.8" y="1165.6" width="4" height="10.7" fill="#7d9d7b" fill-opacity="0.26"/><rect x="1322.3" y="1083.3" width="3" height="15.5" fill="#7d9d7b" fill-opacity="0.26"/><rect x="636.2" y="1003" width="2.1" height="6.9" fill="#7d9d7b" fill-opacity="0.26"/><rect x="2156.3" y="1167.4" width="4" height="11.5" fill="#7d9d7b" fill-opacity="0.26"/><rect x="879.7" y="1024.2" width="2.4" height="9.2" fill="#7d9d7b" fill-opacity="0.26"/><path d="M -1800 1512 q 143.4 -143 286.7 0 q 65.3 -101.5 130.7 0 q 63.3 -75.9 126.6 0 q 78.9 -100.1 157.8 0 q 124.4 -133.2 248.9 0 q 117.3 -86.7 234.5 0 q 74.5 -159.2 149 0 q 111.7 -155.2 223.3 0 q 144.7 -127 289.5 0 q 100.4 -110.2 200.8 0 q 123.9 -145.8 247.9 0 q 94.6 -167.1 189.2 0 q 95.3 -156.8 190.7 0 q 140.8 -84.4 281.6 0 q 93.4 -70.5 186.8 0 q 94.7 -139.5 189.3 0 q 135.7 -150 271.5 0 q 88.9 -162.1 177.9 0 q 82.7 -81.3 165.4 0 q 83 -115.9 166 0 q 74.7 -173.3 149.4 0 q 90.2 -76.8 180.3 0 q 66.8 -168.5 133.5 0 q 101.7 -81.8 203.3 0 q 130.2 -73 260.4 0 q 76.5 -124.8 153 0 q 133.7 -172.9 267.5 0 q 135.8 -106.1 271.6 0 q 64.6 -74.1 129.2 0 q 123.9 -170.9 247.8 0 q 112.4 -89.8 224.8 0 L 4534.6 2412 L -1800 2412 Z" fill="#050706"/><circle cx="243.4" cy="1504.1" r="202.6" fill="#050706" fill-opacity="1"/><circle cx="179.6" cy="1554.4" r="201.2" fill="#050706" fill-opacity="1"/><circle cx="129.3" cy="1583.2" r="180.8" fill="#050706" fill-opacity="1"/><circle cx="31.3" cy="1491.3" r="177" fill="#050706" fill-opacity="1"/><circle cx="137.6" cy="1463.1" r="196.9" fill="#050706" fill-opacity="1"/><circle cx="205.7" cy="1490.8" r="138" fill="#050706" fill-opacity="1"/><circle cx="2357.3" cy="1539.8" r="185" fill="#050706" fill-opacity="1"/><circle cx="2308.3" cy="1619.8" r="192.4" fill="#050706" fill-opacity="1"/><circle cx="2202.9" cy="1616.8" r="151.7" fill="#050706" fill-opacity="1"/><circle cx="2204.4" cy="1550.5" r="170.1" fill="#050706" fill-opacity="1"/><circle cx="2212.2" cy="1496.4" r="234.9" fill="#050706" fill-opacity="1"/><circle cx="2315.9" cy="1521.2" r="179.5" fill="#050706" fill-opacity="1"/></g><rect x="0" y="0" width="1920" height="1080" fill="#5c7d5b" fill-opacity="0.05"/><rect x="0" y="0" width="1920" height="1080" fill="url(#garden-court-hero-grid)" opacity="0.04"/><rect x="0" y="0" width="1920" height="1080" fill="url(#garden-court-hero-vignette)"/><rect x="0" y="0" width="1920" height="1080" fill="#060607" filter="url(#garden-court-hero-grain)" opacity="0.13"/></svg>
