<svg xmlns="http://www.w3.org/2000/svg" width="1600" height="1100" viewBox="0 0 1600 1100" preserveAspectRatio="xMidYMid slice" role="img" aria-labelledby="luxofy-gallery-01-title"><title id="luxofy-gallery-01-title">Luxofy — abstract rendering of the villa elevation</title><desc>Generated stand-in artwork: abstract rendering of the villa elevation. Not a photograph of the property.</desc><defs><linearGradient id="luxofy-gallery-01-ground" gradientUnits="userSpaceOnUse" x1="0" y1="820" x2="0" y2="2900"><stop offset="0" stop-color="#0e0f12"/><stop offset="0.42" stop-color="#131418"/><stop offset="1" stop-color="#131418"/></linearGradient><pattern id="luxofy-gallery-01-winblk" x="182" y="670" width="30" height="47" patternUnits="userSpaceOnUse"><rect x="6.5" y="12.5" width="17" height="22" fill="#060607" fill-opacity="0.9"/></pattern><linearGradient id="luxofy-gallery-01-blkrim" gradientUnits="userSpaceOnUse" x1="644" y1="0" x2="668" y2="0"><stop offset="0" stop-color="#e5d3a8" stop-opacity="0"/><stop offset="0.55" stop-color="#e5d3a8" stop-opacity="0.16"/><stop offset="1" stop-color="#e5d3a8" stop-opacity="0.4"/></linearGradient><linearGradient id="luxofy-gallery-01-interior" gradientUnits="userSpaceOnUse" x1="0" y1="876" x2="0" y2="1004"><stop offset="0" stop-color="#e5d3a8" stop-opacity="0.585"/><stop offset="0.65" stop-color="#e5d3a8" stop-opacity="0.2"/><stop offset="1" stop-color="#131418" stop-opacity="0.9"/></linearGradient><linearGradient id="luxofy-gallery-01-stonerim" gradientUnits="userSpaceOnUse" x1="1576" y1="0" x2="1602" y2="0"><stop offset="0" stop-color="#e5d3a8" stop-opacity="0"/><stop offset="0.55" stop-color="#e5d3a8" stop-opacity="0.248"/><stop offset="1" stop-color="#e5d3a8" stop-opacity="0.62"/></linearGradient><clipPath id="luxofy-gallery-01-poolclip"><rect x="620" y="1112" width="1320" height="408"/></clipPath><linearGradient id="luxofy-gallery-01-pool" gradientUnits="userSpaceOnUse" x1="0" y1="1112" x2="0" y2="1520"><stop offset="0" stop-color="#1c2026" stop-opacity="1"/><stop offset="0.42" stop-color="#14171c" stop-opacity="1"/><stop offset="1" stop-color="#0b0c10" stop-opacity="1"/></linearGradient><linearGradient id="luxofy-gallery-01-sheen" gradientUnits="userSpaceOnUse" x1="0" y1="1112" x2="0" y2="1262"><stop offset="0" stop-color="#e5d3a8" stop-opacity="0.22"/><stop offset="1" stop-color="#e5d3a8" stop-opacity="0"/></linearGradient><linearGradient id="luxofy-gallery-01-approach" gradientUnits="userSpaceOnUse" x1="0" y1="1150" x2="0" y2="1600"><stop offset="0" stop-color="#191b20" stop-opacity="0.5"/><stop offset="0.55" stop-color="#212429" stop-opacity="0.85"/><stop offset="1" stop-color="#2b2f36" stop-opacity="0.9"/></linearGradient><linearGradient id="luxofy-gallery-01-sky" gradientUnits="userSpaceOnUse" x1="0" y1="0" x2="0" y2="1100"><stop offset="0" stop-color="#060607"/><stop offset="0.02" stop-color="#0b0b0e"/><stop offset="0.33" stop-color="#191410"/><stop offset="1" stop-color="#0a0a0c"/></linearGradient><radialGradient id="luxofy-gallery-01-glow" gradientUnits="userSpaceOnUse" cx="1620.8" cy="276.4" r="1472"><stop offset="0" stop-color="#c9a961" stop-opacity="0.38"/><stop offset="0.3" stop-color="#c9a961" stop-opacity="0.16"/><stop offset="0.66" stop-color="#c9a961" stop-opacity="0.046"/><stop offset="1" stop-color="#c9a961" stop-opacity="0"/></radialGradient><linearGradient id="luxofy-gallery-01-haze" gradientUnits="userSpaceOnUse" x1="0" y1="32.8" x2="0" y2="538.8"><stop offset="0" stop-color="#c9a961" stop-opacity="0"/><stop offset="0.62" stop-color="#c9a961" stop-opacity="0.22"/><stop offset="0.82" stop-color="#c9a961" stop-opacity="0.11"/><stop offset="1" stop-color="#c9a961" stop-opacity="0"/></linearGradient><pattern id="luxofy-gallery-01-grid" width="18" height="18" patternUnits="userSpaceOnUse"><rect x="0" y="0" width="1" height="18" fill="#f5f3ee" fill-opacity="0.5"/></pattern><radialGradient id="luxofy-gallery-01-vignette" cx="0.5" cy="0.46" r="0.78"><stop offset="0.3" stop-color="#000000" stop-opacity="0"/><stop offset="0.68" stop-color="#000000" stop-opacity="0.26"/><stop offset="1" stop-color="#060607" stop-opacity="0.82"/></radialGradient><filter id="luxofy-gallery-01-grain" x="-2%" y="-2%" width="104%" height="104%" color-interpolation-filters="sRGB"><feTurbulence type="fractalNoise" baseFrequency="0.82" numOctaves="3" seed="11" stitchTiles="stitch" result="noise"/><feColorMatrix in="noise" type="matrix" values="0 0 0 0 1 0 0 0 0 1 0 0 0 0 1 0.9 0 0 0 -0.36"/></filter></defs><rect x="0" y="0" width="1600" height="1100" fill="url(#luxofy-gallery-01-sky)"/><rect x="0" y="0" width="1600" height="1100" fill="url(#luxofy-gallery-01-glow)"/><rect x="0" y="0" width="1600" height="1100" fill="url(#luxofy-gallery-01-haze)"/><g transform="translate(-856 -818) scale(1.4)"><polygon points="-1800,710.6 -1540,708.5 -1280,714.1 -1020,704.1 -760,679 -500,677 -240,694 20,711 280,744 540,781.4 800,788.1 1060,780.1 1320,779.1 1580,769.6 1840,762.4 2100,780.1 2360,793.3 2620,782.1 2880,767.8 3140,744.8 3400,703.4 3660,679.5 3920,684.3 4180,689 4440,697.9 4660,2900 -1800,2900" fill="#0e0f12"/><rect x="-1800" y="820" width="6200" height="2080" fill="url(#luxofy-gallery-01-ground)"/><path d="M -1800 864 q 80.1 -73.5 160.3 0 q 74.5 -51.7 148.9 0 q 76.5 -73.4 153 0 q 64.6 -59.5 129.1 0 q 69.7 -81.1 139.5 0 q 61.6 -91.6 123.2 0 q 54.5 -68.3 109 0 q 86 -70.5 172.1 0 q 48.5 -94.4 97.1 0 q 40.4 -70.7 80.8 0 q 76.6 -47.4 153.2 0 q 51.4 -85.2 102.7 0 q 39.8 -106.2 79.7 0 q 82.4 -75 164.8 0 q 84.5 -91.2 169 0 q 46.7 -47.6 93.3 0 q 63.7 -53.2 127.3 0 q 77.1 -78.8 154.2 0 q 89.7 -109.4 179.4 0 q 50.1 -84.1 100.2 0 q 60.7 -67.2 121.3 0 q 74.9 -72.6 149.8 0 q 89.7 -81 179.5 0 q 83.3 -65 166.7 0 q 54.5 -63.5 108.9 0 q 60.2 -92.1 120.5 0 q 43.9 -62.6 87.7 0 q 45.8 -81.3 91.6 0 q 48.7 -97.3 97.3 0 q 52.2 -47.6 104.3 0 q 53.3 -91.7 106.6 0 q 43 -90.4 86 0 q 67.4 -79.1 134.7 0 q 64.1 -55.5 128.2 0 q 80.3 -54.6 160.5 0 q 57.2 -54.1 114.3 0 q 68.7 -83.8 137.5 0 q 43.9 -101.1 87.8 0 q 75.2 -73 150.4 0 q 83.9 -96.9 167.7 0 q 52.3 -95.1 104.7 0 q 89.9 -65.2 179.8 0 q 43.9 -64 87.9 0 q 66.8 -110.3 133.5 0 q 75.1 -71.3 150.3 0 q 84 -98.7 168.1 0 q 70.6 -66.9 141.3 0 q 73.5 -53.6 147.1 0 L 4451.2 1324 L -1800 1324 Z" fill="#0c0d10"/><rect x="168" y="660" width="496" height="336" fill="#131418"/><rect x="182" y="670" width="468" height="310" fill="url(#luxofy-gallery-01-winblk)"/><rect x="218.5" y="682.5" width="17" height="22" fill="#e5d3a8" fill-opacity="0.39"/><rect x="338.5" y="682.5" width="17" height="22" fill="#e5d3a8" fill-opacity="0.433"/><rect x="398.5" y="682.5" width="17" height="22" fill="#e5d3a8" fill-opacity="0.415"/><rect x="488.5" y="682.5" width="17" height="22" fill="#e5d3a8" fill-opacity="0.298"/><rect x="608.5" y="682.5" width="17" height="22" fill="#e5d3a8" fill-opacity="0.25"/><rect x="188.5" y="729.5" width="17" height="22" fill="#e5d3a8" fill-opacity="0.231"/><rect x="218.5" y="729.5" width="17" height="22" fill="#e5d3a8" fill-opacity="0.374"/><rect x="308.5" y="729.5" width="17" height="22" fill="#e5d3a8" fill-opacity="0.257"/><rect x="368.5" y="729.5" width="17" height="22" fill="#e5d3a8" fill-opacity="0.324"/><rect x="398.5" y="729.5" width="17" height="22" fill="#e5d3a8" fill-opacity="0.286"/><rect x="518.5" y="729.5" width="17" height="22" fill="#e5d3a8" fill-opacity="0.437"/><rect x="278.5" y="776.5" width="17" height="22" fill="#e5d3a8" fill-opacity="0.284"/><rect x="428.5" y="776.5" width="17" height="22" fill="#e5d3a8" fill-opacity="0.223"/><rect x="458.5" y="776.5" width="17" height="22" fill="#e5d3a8" fill-opacity="0.361"/><rect x="578.5" y="776.5" width="17" height="22" fill="#e5d3a8" fill-opacity="0.408"/><rect x="278.5" y="823.5" width="17" height="22" fill="#e5d3a8" fill-opacity="0.392"/><rect x="518.5" y="823.5" width="17" height="22" fill="#e5d3a8" fill-opacity="0.358"/><rect x="338.5" y="870.5" width="17" height="22" fill="#e5d3a8" fill-opacity="0.286"/><rect x="578.5" y="870.5" width="17" height="22" fill="#e5d3a8" fill-opacity="0.425"/><rect x="248.5" y="917.5" width="17" height="22" fill="#e5d3a8" fill-opacity="0.28"/><rect x="308.5" y="917.5" width="17" height="22" fill="#e5d3a8" fill-opacity="0.388"/><rect x="518.5" y="917.5" width="17" height="22" fill="#e5d3a8" fill-opacity="0.415"/><rect x="608.5" y="917.5" width="17" height="22" fill="#e5d3a8" fill-opacity="0.407"/><rect x="158" y="702" width="516" height="9" fill="#191b20"/><rect x="158" y="749" width="516" height="9" fill="#191b20"/><rect x="158" y="796" width="516" height="9" fill="#191b20"/><rect x="158" y="843" width="516" height="9" fill="#191b20"/><rect x="158" y="890" width="516" height="9" fill="#191b20"/><rect x="158" y="937" width="516" height="9" fill="#191b20"/><rect x="158" y="984" width="516" height="9" fill="#191b20"/><rect x="644" y="660" width="24" height="336" fill="url(#luxofy-gallery-01-blkrim)"/><rect x="874" y="876" width="708" height="128" fill="url(#luxofy-gallery-01-interior)"/><rect x="902" y="878" width="8" height="126" fill="#0a0a0c" fill-opacity="0.75"/><rect x="1026" y="878" width="8" height="126" fill="#0a0a0c" fill-opacity="0.75"/><rect x="1150" y="878" width="8" height="126" fill="#0a0a0c" fill-opacity="0.75"/><rect x="1274" y="878" width="8" height="126" fill="#0a0a0c" fill-opacity="0.75"/><rect x="1398" y="878" width="8" height="126" fill="#0a0a0c" fill-opacity="0.75"/><rect x="1522" y="878" width="8" height="126" fill="#0a0a0c" fill-opacity="0.75"/><rect x="1412" y="782" width="190" height="222" fill="#191b20"/><rect x="1412" y="782" width="190" height="3" fill="#3a3f47" fill-opacity="0.5"/><rect x="1576" y="782" width="26" height="222" fill="url(#luxofy-gallery-01-stonerim)"/><rect x="772" y="796" width="620" height="22" fill="#191b20"/><rect x="772" y="852" width="994" height="30" fill="#212429"/><rect x="772" y="852" width="994" height="3.4" fill="#e5d3a8" fill-opacity="0.55"/><rect x="772" y="879" width="994" height="3" fill="#060607" fill-opacity="0.6"/><rect x="928" y="882" width="9" height="122" fill="#212429"/><rect x="1160" y="882" width="9" height="122" fill="#212429"/><rect x="1392" y="882" width="9" height="122" fill="#212429"/><rect x="1624" y="882" width="9" height="122" fill="#212429"/><rect x="736" y="1004" width="1064" height="26" fill="#212429"/><rect x="736" y="1004" width="1064" height="2.6" fill="#3a3f47" fill-opacity="0.45"/><rect x="-1800" y="1044" width="6200" height="68" fill="#131418"/><rect x="-1800" y="1044" width="6200" height="2.4" fill="#2b2f36" fill-opacity="0.5"/><circle cx="-233.9" cy="1049.5" r="34.6" fill="#0a0c0e" fill-opacity="0.95"/><circle cx="-251.5" cy="1060.5" r="39.4" fill="#0a0c0e" fill-opacity="0.95"/><circle cx="-269.8" cy="1054.4" r="34" fill="#0a0c0e" fill-opacity="0.95"/><circle cx="-250.5" cy="1032.3" r="34.8" fill="#0a0c0e" fill-opacity="0.95"/><circle cx="-42" cy="1053.2" r="35.8" fill="#0a0c0e" fill-opacity="0.95"/><circle cx="-61.7" cy="1062.8" r="42.6" fill="#0a0c0e" fill-opacity="0.95"/><circle cx="-86.7" cy="1049.7" r="46.5" fill="#0a0c0e" fill-opacity="0.95"/><circle cx="-59.4" cy="1033.5" r="34.8" fill="#0a0c0e" fill-opacity="0.95"/><circle cx="101.5" cy="1047.2" r="32.6" fill="#0a0c0e" fill-opacity="0.95"/><circle cx="94.7" cy="1063.3" r="33.4" fill="#0a0c0e" fill-opacity="0.95"/><circle cx="68.8" cy="1048.1" r="30.5" fill="#0a0c0e" fill-opacity="0.95"/><circle cx="90.5" cy="1039.3" r="36.5" fill="#0a0c0e" fill-opacity="0.95"/><circle cx="286.7" cy="1052.8" r="42.7" fill="#0a0c0e" fill-opacity="0.95"/><circle cx="267.2" cy="1065.8" r="47.6" fill="#0a0c0e" fill-opacity="0.95"/><circle cx="261.1" cy="1047.9" r="42.6" fill="#0a0c0e" fill-opacity="0.95"/><circle cx="264.3" cy="1035.7" r="45.9" fill="#0a0c0e" fill-opacity="0.95"/><circle cx="461" cy="1050.8" r="35.4" fill="#0a0c0e" fill-opacity="0.95"/><circle cx="433.9" cy="1066.9" r="41" fill="#0a0c0e" fill-opacity="0.95"/><circle cx="414.6" cy="1047.9" r="45.4" fill="#0a0c0e" fill-opacity="0.95"/><circle cx="424.2" cy="1033" r="30.2" fill="#0a0c0e" fill-opacity="0.95"/><circle cx="619.8" cy="1054.7" r="30" fill="#0a0c0e" fill-opacity="0.95"/><circle cx="593.4" cy="1063" r="38.9" fill="#0a0c0e" fill-opacity="0.95"/><circle cx="571.6" cy="1047.5" r="43.6" fill="#0a0c0e" fill-opacity="0.95"/><circle cx="602.1" cy="1036.8" r="38.2" fill="#0a0c0e" fill-opacity="0.95"/><circle cx="1819.1" cy="1047.8" r="46" fill="#0a0c0e" fill-opacity="0.95"/><circle cx="1801.2" cy="1059.8" r="39.5" fill="#0a0c0e" fill-opacity="0.95"/><circle cx="1790.6" cy="1047.6" r="44.7" fill="#0a0c0e" fill-opacity="0.95"/><circle cx="1801.6" cy="1043.3" r="41.9" fill="#0a0c0e" fill-opacity="0.95"/><circle cx="1977.4" cy="1050.9" r="43.9" fill="#0a0c0e" fill-opacity="0.95"/><circle cx="1960.9" cy="1061.6" r="44.3" fill="#0a0c0e" fill-opacity="0.95"/><circle cx="1948.8" cy="1050.6" r="36" fill="#0a0c0e" fill-opacity="0.95"/><circle cx="1961.8" cy="1041.7" r="45" fill="#0a0c0e" fill-opacity="0.95"/><circle cx="2165.8" cy="1049.7" r="35.2" fill="#0a0c0e" fill-opacity="0.95"/><circle cx="2143.9" cy="1064.7" r="44.7" fill="#0a0c0e" fill-opacity="0.95"/><circle cx="2117.2" cy="1046.5" r="43.1" fill="#0a0c0e" fill-opacity="0.95"/><circle cx="2150.4" cy="1035.2" r="40.6" fill="#0a0c0e" fill-opacity="0.95"/><circle cx="2316.4" cy="1048.4" r="45.4" fill="#0a0c0e" fill-opacity="0.95"/><circle cx="2299.6" cy="1059.4" r="33.7" fill="#0a0c0e" fill-opacity="0.95"/><circle cx="2279.5" cy="1054.3" r="43.7" fill="#0a0c0e" fill-opacity="0.95"/><circle cx="2301.2" cy="1032.7" r="45.8" fill="#0a0c0e" fill-opacity="0.95"/><circle cx="2496.9" cy="1046.2" r="39.4" fill="#0a0c0e" fill-opacity="0.95"/><circle cx="2482.9" cy="1062.1" r="36.7" fill="#0a0c0e" fill-opacity="0.95"/><circle cx="2469.1" cy="1050.7" r="41.6" fill="#0a0c0e" fill-opacity="0.95"/><circle cx="2485.1" cy="1039" r="42.3" fill="#0a0c0e" fill-opacity="0.95"/><rect x="-1800" y="1106" width="6200" height="26" fill="#191b20"/><rect x="594" y="1102" width="1372" height="448" fill="#212429"/><rect x="620" y="1112" width="1320" height="408" fill="url(#luxofy-gallery-01-pool)"/><g transform="translate(0 1801.4) scale(1 -0.6)" opacity="0.6" clip-path="url(#luxofy-gallery-01-poolclip)"><rect x="772" y="852" width="994" height="30" fill="#e5d3a8" fill-opacity="0.85"/><rect x="874" y="876" width="708" height="128" fill="#e5d3a8" fill-opacity="0.8"/><rect x="1412" y="782" width="190" height="222" fill="#3a3f47"/><rect x="168" y="660" width="496" height="336" fill="#2b2f36"/></g><g clip-path="url(#luxofy-gallery-01-poolclip)"><rect x="1276.1" y="1120" width="601.2" height="1.2" fill="#e5d3a8" fill-opacity="0.091"/><rect x="626" y="1121.1" width="375.4" height="1.3" fill="#e5d3a8" fill-opacity="0.1"/><rect x="1578.7" y="1124.2" width="350.9" height="1.4" fill="#e5d3a8" fill-opacity="0.109"/><rect x="1180.6" y="1129.5" width="515.1" height="1.5" fill="#e5d3a8" fill-opacity="0.118"/><rect x="1413" y="1136.8" width="494" height="1.7" fill="#e5d3a8" fill-opacity="0.127"/><rect x="1027.3" y="1146.3" width="456.5" height="1.8" fill="#e5d3a8" fill-opacity="0.135"/><rect x="875" y="1157.9" width="565.3" height="1.9" fill="#e5d3a8" fill-opacity="0.144"/><rect x="1177.8" y="1171.6" width="530.5" height="2" fill="#e5d3a8" fill-opacity="0.153"/><rect x="643.5" y="1187.4" width="187.7" height="2.1" fill="#e5d3a8" fill-opacity="0.162"/><rect x="1028" y="1205.3" width="586.2" height="2.2" fill="#e5d3a8" fill-opacity="0.171"/><rect x="1628.6" y="1225.3" width="160.5" height="2.4" fill="#e5d3a8" fill-opacity="0.18"/><rect x="1245.1" y="1247.4" width="492.9" height="2.5" fill="#e5d3a8" fill-opacity="0.189"/><rect x="1112.2" y="1271.6" width="478.9" height="2.6" fill="#e5d3a8" fill-opacity="0.198"/><rect x="1213.4" y="1297.9" width="471.5" height="2.7" fill="#e5d3a8" fill-opacity="0.207"/><rect x="735.4" y="1326.3" width="582.3" height="2.8" fill="#e5d3a8" fill-opacity="0.216"/><rect x="1274.9" y="1356.8" width="341.6" height="2.9" fill="#e5d3a8" fill-opacity="0.224"/><rect x="893" y="1389.5" width="475.3" height="3.1" fill="#e5d3a8" fill-opacity="0.233"/><rect x="1341.4" y="1424.2" width="346.9" height="3.2" fill="#e5d3a8" fill-opacity="0.242"/><rect x="1328.3" y="1461.1" width="511.8" height="3.3" fill="#e5d3a8" fill-opacity="0.251"/><rect x="654.6" y="1500" width="333.8" height="3.4" fill="#e5d3a8" fill-opacity="0.26"/></g><rect x="620" y="1112" width="1320" height="150" fill="url(#luxofy-gallery-01-sheen)"/><rect x="620" y="1112" width="1320" height="3.4" fill="#e5d3a8" fill-opacity="0.55"/><rect x="594" y="1520" width="1372" height="30" fill="#212429"/><rect x="594" y="1520" width="1372" height="2.4" fill="#3a3f47" fill-opacity="0.5"/><path d="M 742 1090 Q 734.6 881.7 705 754" stroke="#07080a" stroke-width="11" fill="none" stroke-linecap="round" stroke-opacity="1"/><path d="M 705 754 Q 646 721.8 591.5 772.2" stroke="#07080a" stroke-width="6.8" fill="none" stroke-linecap="round" stroke-opacity="0.9"/><path d="M 705 754 Q 648.1 689.3 595.5 742.4" stroke="#07080a" stroke-width="6.8" fill="none" stroke-linecap="round" stroke-opacity="0.9"/><path d="M 705 754 Q 676.2 684.3 649.6 724.6" stroke="#07080a" stroke-width="6.8" fill="none" stroke-linecap="round" stroke-opacity="0.9"/><path d="M 705 754 Q 704.5 670.8 704.1 712.4" stroke="#07080a" stroke-width="6.8" fill="none" stroke-linecap="round" stroke-opacity="0.9"/><path d="M 705 754 Q 729.9 680.4 752.9 721.1" stroke="#07080a" stroke-width="6.8" fill="none" stroke-linecap="round" stroke-opacity="0.9"/><path d="M 705 754 Q 758.2 690.8 807.3 741.2" stroke="#07080a" stroke-width="6.8" fill="none" stroke-linecap="round" stroke-opacity="0.9"/><path d="M 705 754 Q 779 716.5 847.3 779.9" stroke="#07080a" stroke-width="6.8" fill="none" stroke-linecap="round" stroke-opacity="0.9"/><path d="M 1868 1082 Q 1874.4 835.2 1899.8 684" stroke="#07080a" stroke-width="11" fill="none" stroke-linecap="round" stroke-opacity="1"/><path d="M 1899.8 684 Q 1812.6 645.2 1732.1 720.3" stroke="#07080a" stroke-width="6.8" fill="none" stroke-linecap="round" stroke-opacity="0.9"/><path d="M 1899.8 684 Q 1848.1 627.4 1800.4 675.1" stroke="#07080a" stroke-width="6.8" fill="none" stroke-linecap="round" stroke-opacity="0.9"/><path d="M 1899.8 684 Q 1865.4 576.1 1833.6 635.2" stroke="#07080a" stroke-width="6.8" fill="none" stroke-linecap="round" stroke-opacity="0.9"/><path d="M 1899.8 684 Q 1898.8 577.2 1897.9 630.6" stroke="#07080a" stroke-width="6.8" fill="none" stroke-linecap="round" stroke-opacity="0.9"/><path d="M 1899.8 684 Q 1936.5 595.1 1970.3 646.5" stroke="#07080a" stroke-width="6.8" fill="none" stroke-linecap="round" stroke-opacity="0.9"/><path d="M 1899.8 684 Q 1960.3 614.4 2016.1 671.1" stroke="#07080a" stroke-width="6.8" fill="none" stroke-linecap="round" stroke-opacity="0.9"/><path d="M 1899.8 684 Q 1967.7 648.3 2030.3 706.3" stroke="#07080a" stroke-width="6.8" fill="none" stroke-linecap="round" stroke-opacity="0.9"/><path d="M 2072 1112 Q 2068.5 931 2054.5 820" stroke="#07080a" stroke-width="11" fill="none" stroke-linecap="round" stroke-opacity="1"/><path d="M 2054.5 820 Q 1989.1 789.4 1928.8 845.6" stroke="#07080a" stroke-width="6.8" fill="none" stroke-linecap="round" stroke-opacity="0.9"/><path d="M 2054.5 820 Q 1999.3 759.7 1948.4 810.6" stroke="#07080a" stroke-width="6.8" fill="none" stroke-linecap="round" stroke-opacity="0.9"/><path d="M 2054.5 820 Q 2022.5 739.8 1993 785.8" stroke="#07080a" stroke-width="6.8" fill="none" stroke-linecap="round" stroke-opacity="0.9"/><path d="M 2054.5 820 Q 2057 750.6 2059.3 785.3" stroke="#07080a" stroke-width="6.8" fill="none" stroke-linecap="round" stroke-opacity="0.9"/><path d="M 2054.5 820 Q 2076.9 754.5 2097.5 790.8" stroke="#07080a" stroke-width="6.8" fill="none" stroke-linecap="round" stroke-opacity="0.9"/><path d="M 2054.5 820 Q 2099.9 763.3 2141.8 807.1" stroke="#07080a" stroke-width="6.8" fill="none" stroke-linecap="round" stroke-opacity="0.9"/><path d="M 2054.5 820 Q 2121.4 782.5 2183.1 839.6" stroke="#07080a" stroke-width="6.8" fill="none" stroke-linecap="round" stroke-opacity="0.9"/><path d="M 2276 1064 Q 2279.4 850.7 2293.2 720" stroke="#07080a" stroke-width="11" fill="none" stroke-linecap="round" stroke-opacity="1"/><path d="M 2293.2 720 Q 2226.4 686.1 2164.8 743.3" stroke="#07080a" stroke-width="6.8" fill="none" stroke-linecap="round" stroke-opacity="0.9"/><path d="M 2293.2 720 Q 2249.1 664.3 2208.4 707" stroke="#07080a" stroke-width="6.8" fill="none" stroke-linecap="round" stroke-opacity="0.9"/><path d="M 2293.2 720 Q 2260 640 2229.4 686.3" stroke="#07080a" stroke-width="6.8" fill="none" stroke-linecap="round" stroke-opacity="0.9"/><path d="M 2293.2 720 Q 2293.1 636.9 2293 678.4" stroke="#07080a" stroke-width="6.8" fill="none" stroke-linecap="round" stroke-opacity="0.9"/><path d="M 2293.2 720 Q 2322.1 641.3 2348.7 685.6" stroke="#07080a" stroke-width="6.8" fill="none" stroke-linecap="round" stroke-opacity="0.9"/><path d="M 2293.2 720 Q 2344.6 665.7 2392 712.7" stroke="#07080a" stroke-width="6.8" fill="none" stroke-linecap="round" stroke-opacity="0.9"/><path d="M 2293.2 720 Q 2361.6 683.8 2424.7 742.3" stroke="#07080a" stroke-width="6.8" fill="none" stroke-linecap="round" stroke-opacity="0.9"/><polygon points="2110,1150 2270,1150 2430,1600 1950,1600" fill="url(#luxofy-gallery-01-approach)"/><path d="M 2190 1150 L 2190 1600" stroke="#c9a961" stroke-width="3" stroke-opacity="0.26" stroke-dasharray="26 30" fill="none"/><rect x="2098" y="1162" width="8" height="18" fill="#07080a"/><circle cx="2102" cy="1160" r="4" fill="#e5d3a8" fill-opacity="0.56"/><rect x="2274" y="1162" width="8" height="18" fill="#07080a"/><circle cx="2278" cy="1160" r="4" fill="#e5d3a8" fill-opacity="0.56"/><rect x="2069.2" y="1234.8" width="8" height="21.2" fill="#07080a"/><circle cx="2073.2" cy="1232.4" r="4.6" fill="#e5d3a8" fill-opacity="0.56"/><rect x="2302.8" y="1234.8" width="8" height="21.2" fill="#07080a"/><circle cx="2306.8" cy="1232.4" r="4.6" fill="#e5d3a8" fill-opacity="0.56"/><rect x="2040.4" y="1307.6" width="8" height="24.4" fill="#07080a"/><circle cx="2044.4" cy="1304.8" r="5.2" fill="#e5d3a8" fill-opacity="0.56"/><rect x="2331.6" y="1307.6" width="8" height="24.4" fill="#07080a"/><circle cx="2335.6" cy="1304.8" r="5.2" fill="#e5d3a8" fill-opacity="0.56"/><rect x="2011.6" y="1380.4" width="8" height="27.6" fill="#07080a"/><circle cx="2015.6" cy="1377.2" r="5.8" fill="#e5d3a8" fill-opacity="0.56"/><rect x="2360.4" y="1380.4" width="8" height="27.6" fill="#07080a"/><circle cx="2364.4" cy="1377.2" r="5.8" fill="#e5d3a8" fill-opacity="0.56"/><rect x="1982.8" y="1453.2" width="8" height="30.8" fill="#07080a"/><circle cx="1986.8" cy="1449.6" r="6.4" fill="#e5d3a8" fill-opacity="0.56"/><rect x="2389.2" y="1453.2" width="8" height="30.8" fill="#07080a"/><circle cx="2393.2" cy="1449.6" r="6.4" fill="#e5d3a8" fill-opacity="0.56"/><rect x="1954" y="1526" width="8" height="34" fill="#07080a"/><circle cx="1958" cy="1522" r="7" fill="#e5d3a8" fill-opacity="0.56"/><rect x="2418" y="1526" width="8" height="34" fill="#07080a"/><circle cx="2422" cy="1522" r="7" fill="#e5d3a8" fill-opacity="0.56"/></g><rect x="0" y="0" width="1600" height="1100" fill="#c9a961" fill-opacity="0.05"/><rect x="0" y="0" width="1600" height="1100" fill="url(#luxofy-gallery-01-grid)" opacity="0.04"/><rect x="0" y="0" width="1600" height="1100" fill="url(#luxofy-gallery-01-vignette)"/><rect x="0" y="0" width="1600" height="1100" fill="#060607" filter="url(#luxofy-gallery-01-grain)" opacity="0.13"/></svg>
