<svg xmlns="http://www.w3.org/2000/svg" width="1600" height="1100" viewBox="0 0 1600 1100" preserveAspectRatio="xMidYMid slice" role="img" aria-labelledby="eth-infra-haridwar-one-gallery-04-title"><title id="eth-infra-haridwar-one-gallery-04-title">ETH Infra — Haridwar One — abstract rendering of the river-facing aspect</title><desc>Generated stand-in artwork: abstract rendering of the river-facing aspect. Not a photograph of the property.</desc><defs><linearGradient id="eth-infra-haridwar-one-gallery-04-ground" gradientUnits="userSpaceOnUse" x1="0" y1="820" x2="0" y2="2900"><stop offset="0" stop-color="#0e0f12"/><stop offset="0.42" stop-color="#131418"/><stop offset="1" stop-color="#131418"/></linearGradient><linearGradient id="eth-infra-haridwar-one-gallery-04-river" gradientUnits="userSpaceOnUse" x1="0" y1="834" x2="0" y2="950"><stop offset="0" stop-color="#c9a961" stop-opacity="0.3"/><stop offset="0.5" stop-color="#131418" stop-opacity="0.85"/><stop offset="1" stop-color="#0e0f12" stop-opacity="1"/></linearGradient><pattern id="eth-infra-haridwar-one-gallery-04-fb0" x="248" y="336" width="26" height="34" patternUnits="userSpaceOnUse"><rect x="7" y="8.5" width="12" height="17" fill="#212429" fill-opacity="0.85"/></pattern><pattern id="eth-infra-haridwar-one-gallery-04-fb1" x="1756" y="268" width="26" height="34" patternUnits="userSpaceOnUse"><rect x="7" y="8.5" width="12" height="17" fill="#212429" fill-opacity="0.85"/></pattern><pattern id="eth-infra-haridwar-one-gallery-04-fb2" x="2164" y="470" width="26" height="34" patternUnits="userSpaceOnUse"><rect x="7" y="8.5" width="12" height="17" fill="#212429" fill-opacity="0.85"/></pattern><pattern id="eth-infra-haridwar-one-gallery-04-fb3" x="-68" y="488" width="26" height="34" patternUnits="userSpaceOnUse"><rect x="7" y="8.5" width="12" height="17" fill="#212429" fill-opacity="0.85"/></pattern><linearGradient id="eth-infra-haridwar-one-gallery-04-towerface" gradientUnits="userSpaceOnUse" x1="876" y1="0" x2="1524" y2="0"><stop offset="0" stop-color="#0e0f12"/><stop offset="0.46" stop-color="#191b20"/><stop offset="1" stop-color="#212429"/></linearGradient><pattern id="eth-infra-haridwar-one-gallery-04-winface" x="972" y="34" width="32" height="40" patternUnits="userSpaceOnUse"><rect x="6.5" y="10" width="19" height="20" fill="#060607" fill-opacity="0.88"/></pattern><linearGradient id="eth-infra-haridwar-one-gallery-04-towerrim" gradientUnits="userSpaceOnUse" x1="1498" y1="0" x2="1528" y2="0"><stop offset="0" stop-color="#e5d3a8" stop-opacity="0"/><stop offset="0.55" stop-color="#e5d3a8" stop-opacity="0.24"/><stop offset="1" stop-color="#e5d3a8" stop-opacity="0.6"/></linearGradient><linearGradient id="eth-infra-haridwar-one-gallery-04-portal" gradientUnits="userSpaceOnUse" x1="0" y1="1052" x2="0" y2="1166"><stop offset="0" stop-color="#e5d3a8" stop-opacity="0.5"/><stop offset="1" stop-color="#e5d3a8" stop-opacity="0.06"/></linearGradient><linearGradient id="eth-infra-haridwar-one-gallery-04-sky" gradientUnits="userSpaceOnUse" x1="0" y1="0" x2="0" y2="1100"><stop offset="0" stop-color="#080a0c"/><stop offset="0.115" stop-color="#111519"/><stop offset="0.575" stop-color="#1e2321"/><stop offset="1" stop-color="#0b0d0e"/></linearGradient><radialGradient id="eth-infra-haridwar-one-gallery-04-glow" gradientUnits="userSpaceOnUse" cx="808.64" cy="538.48" r="1472"><stop offset="0" stop-color="#c9a961" stop-opacity="0.32"/><stop offset="0.3" stop-color="#c9a961" stop-opacity="0.134"/><stop offset="0.66" stop-color="#c9a961" stop-opacity="0.038"/><stop offset="1" stop-color="#c9a961" stop-opacity="0"/></radialGradient><linearGradient id="eth-infra-haridwar-one-gallery-04-haze" gradientUnits="userSpaceOnUse" x1="0" y1="302.08" x2="0" y2="808.08"><stop offset="0" stop-color="#c9a961" stop-opacity="0"/><stop offset="0.62" stop-color="#c9a961" stop-opacity="0.32"/><stop offset="0.82" stop-color="#c9a961" stop-opacity="0.16"/><stop offset="1" stop-color="#c9a961" stop-opacity="0"/></linearGradient><pattern id="eth-infra-haridwar-one-gallery-04-grid" width="18" height="18" patternUnits="userSpaceOnUse"><rect x="0" y="0" width="1" height="18" fill="#f5f3ee" fill-opacity="0.5"/></pattern><radialGradient id="eth-infra-haridwar-one-gallery-04-vignette" cx="0.5" cy="0.46" r="0.78"><stop offset="0.3" stop-color="#000000" stop-opacity="0"/><stop offset="0.68" stop-color="#000000" stop-opacity="0.26"/><stop offset="1" stop-color="#060607" stop-opacity="0.82"/></radialGradient><filter id="eth-infra-haridwar-one-gallery-04-grain" x="-2%" y="-2%" width="104%" height="104%" color-interpolation-filters="sRGB"><feTurbulence type="fractalNoise" baseFrequency="0.82" numOctaves="3" seed="11" stitchTiles="stitch" result="noise"/><feColorMatrix in="noise" type="matrix" values="0 0 0 0 1 0 0 0 0 1 0 0 0 0 1 0.9 0 0 0 -0.36"/></filter></defs><rect x="0" y="0" width="1600" height="1100" fill="url(#eth-infra-haridwar-one-gallery-04-sky)"/><rect x="0" y="0" width="1600" height="1100" fill="url(#eth-infra-haridwar-one-gallery-04-glow)"/><rect x="0" y="0" width="1600" height="1100" fill="url(#eth-infra-haridwar-one-gallery-04-haze)"/><g transform="translate(-300.16 41.68) scale(0.72)"><polygon points="-1800,621.34 -1560,710.75 -1320,731.56 -1080,702.18 -840,720.27 -600,738.91 -360,704.83 -120,710.77 120,781.07 360,800.85 600,765.22 840,762.85 1080,748.78 1320,661.6 1560,599.44 1800,617.82 2040,619.89 2280,592.47 2520,620.05 2760,653.89 3000,608.07 3240,563.27 3480,589.77 3720,606.53 3960,600.07 4200,662.57 4440,753.01 4640,2900 -1800,2900" fill="#0e0f12"/><polygon points="-1800,732.76 -1590,716.89 -1380,712.51 -1170,716.04 -960,709.59 -750,704.99 -540,726.71 -330,764.43 -120,787.78 90,796.22 300,809.39 510,821.04 720,809.57 930,784.98 1140,777.69 1350,787.61 1560,789.86 1770,783.66 1980,788.39 2190,797.01 2400,782.26 2610,746.87 2820,720.96 3030,710.97 3240,697.7 3450,683.38 3660,691.67 3870,719.25 4080,735.01 4290,731.7 4500,732.23 4610,2900 -1800,2900" fill="#0c0d11"/><rect x="-1800" y="820" width="6200" height="2080" fill="url(#eth-infra-haridwar-one-gallery-04-ground)"/><rect x="-1800" y="834" width="6200" height="116" fill="url(#eth-infra-haridwar-one-gallery-04-river)"/><rect x="923.86" y="842" width="541.47" height="1.2" fill="#e5d3a8" fill-opacity="0.077"/><rect x="729.27" y="842.6" width="720.63" height="1.37" fill="#e5d3a8" fill-opacity="0.088"/><rect x="1386.53" y="844.41" width="760.77" height="1.54" fill="#e5d3a8" fill-opacity="0.099"/><rect x="817.7" y="847.43" width="830.78" height="1.71" fill="#e5d3a8" fill-opacity="0.11"/><rect x="343.81" y="851.66" width="572.95" height="1.88" fill="#e5d3a8" fill-opacity="0.121"/><rect x="73.38" y="857.09" width="674.18" height="2.05" fill="#e5d3a8" fill-opacity="0.132"/><rect x="1529.71" y="863.73" width="767.79" height="2.22" fill="#e5d3a8" fill-opacity="0.143"/><rect x="1481.85" y="871.57" width="396.24" height="2.38" fill="#e5d3a8" fill-opacity="0.154"/><rect x="1417.86" y="880.63" width="609.83" height="2.55" fill="#e5d3a8" fill-opacity="0.165"/><rect x="1225.86" y="890.89" width="748.45" height="2.72" fill="#e5d3a8" fill-opacity="0.176"/><rect x="415" y="902.36" width="683.55" height="2.89" fill="#e5d3a8" fill-opacity="0.187"/><rect x="1856.88" y="915.03" width="364.82" height="3.06" fill="#e5d3a8" fill-opacity="0.198"/><rect x="284.56" y="928.91" width="398.98" height="3.23" fill="#e5d3a8" fill-opacity="0.209"/><rect x="350.98" y="944" width="901.35" height="3.4" fill="#e5d3a8" fill-opacity="0.22"/><rect x="236" y="318" width="360" height="712" fill="#0a0a0c"/><rect x="248" y="336" width="336" height="684" fill="url(#eth-infra-haridwar-one-gallery-04-fb0)" opacity="0.55"/><rect x="281" y="344.5" width="12" height="17" fill="#e5d3a8" fill-opacity="0.099"/><rect x="437" y="344.5" width="12" height="17" fill="#e5d3a8" fill-opacity="0.154"/><rect x="255" y="378.5" width="12" height="17" fill="#e5d3a8" fill-opacity="0.169"/><rect x="411" y="378.5" width="12" height="17" fill="#e5d3a8" fill-opacity="0.165"/><rect x="333" y="412.5" width="12" height="17" fill="#e5d3a8" fill-opacity="0.157"/><rect x="437" y="412.5" width="12" height="17" fill="#e5d3a8" fill-opacity="0.09"/><rect x="359" y="446.5" width="12" height="17" fill="#e5d3a8" fill-opacity="0.1"/><rect x="385" y="446.5" width="12" height="17" fill="#e5d3a8" fill-opacity="0.141"/><rect x="541" y="446.5" width="12" height="17" fill="#e5d3a8" fill-opacity="0.081"/><rect x="411" y="480.5" width="12" height="17" fill="#e5d3a8" fill-opacity="0.132"/><rect x="541" y="480.5" width="12" height="17" fill="#e5d3a8" fill-opacity="0.113"/><rect x="541" y="514.5" width="12" height="17" fill="#e5d3a8" fill-opacity="0.097"/><rect x="255" y="582.5" width="12" height="17" fill="#e5d3a8" fill-opacity="0.084"/><rect x="255" y="616.5" width="12" height="17" fill="#e5d3a8" fill-opacity="0.15"/><rect x="463" y="616.5" width="12" height="17" fill="#e5d3a8" fill-opacity="0.151"/><rect x="515" y="616.5" width="12" height="17" fill="#e5d3a8" fill-opacity="0.081"/><rect x="333" y="650.5" width="12" height="17" fill="#e5d3a8" fill-opacity="0.084"/><rect x="411" y="650.5" width="12" height="17" fill="#e5d3a8" fill-opacity="0.115"/><rect x="489" y="650.5" width="12" height="17" fill="#e5d3a8" fill-opacity="0.153"/><rect x="515" y="650.5" width="12" height="17" fill="#e5d3a8" fill-opacity="0.101"/><rect x="236" y="318" width="360" height="4" fill="#191b20"/><rect x="1744" y="250" width="320" height="780" fill="#0a0a0c"/><rect x="1756" y="268" width="296" height="752" fill="url(#eth-infra-haridwar-one-gallery-04-fb1)" opacity="0.55"/><rect x="1867" y="276.5" width="12" height="17" fill="#e5d3a8" fill-opacity="0.179"/><rect x="1893" y="276.5" width="12" height="17" fill="#e5d3a8" fill-opacity="0.138"/><rect x="1971" y="276.5" width="12" height="17" fill="#e5d3a8" fill-opacity="0.173"/><rect x="1867" y="310.5" width="12" height="17" fill="#e5d3a8" fill-opacity="0.111"/><rect x="1763" y="344.5" width="12" height="17" fill="#e5d3a8" fill-opacity="0.109"/><rect x="1945" y="344.5" width="12" height="17" fill="#e5d3a8" fill-opacity="0.159"/><rect x="1971" y="378.5" width="12" height="17" fill="#e5d3a8" fill-opacity="0.082"/><rect x="1997" y="378.5" width="12" height="17" fill="#e5d3a8" fill-opacity="0.12"/><rect x="1971" y="412.5" width="12" height="17" fill="#e5d3a8" fill-opacity="0.085"/><rect x="1789" y="446.5" width="12" height="17" fill="#e5d3a8" fill-opacity="0.086"/><rect x="1841" y="446.5" width="12" height="17" fill="#e5d3a8" fill-opacity="0.107"/><rect x="1867" y="446.5" width="12" height="17" fill="#e5d3a8" fill-opacity="0.086"/><rect x="1971" y="548.5" width="12" height="17" fill="#e5d3a8" fill-opacity="0.082"/><rect x="1893" y="582.5" width="12" height="17" fill="#e5d3a8" fill-opacity="0.088"/><rect x="1945" y="582.5" width="12" height="17" fill="#e5d3a8" fill-opacity="0.111"/><rect x="1971" y="582.5" width="12" height="17" fill="#e5d3a8" fill-opacity="0.082"/><rect x="1919" y="616.5" width="12" height="17" fill="#e5d3a8" fill-opacity="0.12"/><rect x="1893" y="650.5" width="12" height="17" fill="#e5d3a8" fill-opacity="0.12"/><rect x="1893" y="684.5" width="12" height="17" fill="#e5d3a8" fill-opacity="0.16"/><rect x="1945" y="684.5" width="12" height="17" fill="#e5d3a8" fill-opacity="0.149"/><rect x="1744" y="250" width="320" height="4" fill="#191b20"/><rect x="2152" y="452" width="250" height="578" fill="#0a0a0c"/><rect x="2164" y="470" width="226" height="550" fill="url(#eth-infra-haridwar-one-gallery-04-fb2)" opacity="0.55"/><rect x="2171" y="478.5" width="12" height="17" fill="#e5d3a8" fill-opacity="0.091"/><rect x="2171" y="512.5" width="12" height="17" fill="#e5d3a8" fill-opacity="0.105"/><rect x="2301" y="512.5" width="12" height="17" fill="#e5d3a8" fill-opacity="0.098"/><rect x="2353" y="546.5" width="12" height="17" fill="#e5d3a8" fill-opacity="0.167"/><rect x="2353" y="580.5" width="12" height="17" fill="#e5d3a8" fill-opacity="0.126"/><rect x="2197" y="614.5" width="12" height="17" fill="#e5d3a8" fill-opacity="0.096"/><rect x="2223" y="614.5" width="12" height="17" fill="#e5d3a8" fill-opacity="0.12"/><rect x="2197" y="648.5" width="12" height="17" fill="#e5d3a8" fill-opacity="0.14"/><rect x="2301" y="648.5" width="12" height="17" fill="#e5d3a8" fill-opacity="0.117"/><rect x="2353" y="682.5" width="12" height="17" fill="#e5d3a8" fill-opacity="0.147"/><rect x="2301" y="716.5" width="12" height="17" fill="#e5d3a8" fill-opacity="0.145"/><rect x="2353" y="716.5" width="12" height="17" fill="#e5d3a8" fill-opacity="0.1"/><rect x="2171" y="750.5" width="12" height="17" fill="#e5d3a8" fill-opacity="0.162"/><rect x="2171" y="784.5" width="12" height="17" fill="#e5d3a8" fill-opacity="0.163"/><rect x="2327" y="784.5" width="12" height="17" fill="#e5d3a8" fill-opacity="0.165"/><rect x="2223" y="818.5" width="12" height="17" fill="#e5d3a8" fill-opacity="0.165"/><rect x="2275" y="852.5" width="12" height="17" fill="#e5d3a8" fill-opacity="0.162"/><rect x="2301" y="920.5" width="12" height="17" fill="#e5d3a8" fill-opacity="0.166"/><rect x="2327" y="920.5" width="12" height="17" fill="#e5d3a8" fill-opacity="0.152"/><rect x="2301" y="954.5" width="12" height="17" fill="#e5d3a8" fill-opacity="0.087"/><rect x="2152" y="452" width="250" height="4" fill="#191b20"/><rect x="-80" y="470" width="268" height="560" fill="#0a0a0c"/><rect x="-68" y="488" width="244" height="532" fill="url(#eth-infra-haridwar-one-gallery-04-fb3)" opacity="0.55"/><rect x="43" y="496.5" width="12" height="17" fill="#e5d3a8" fill-opacity="0.092"/><rect x="-61" y="530.5" width="12" height="17" fill="#e5d3a8" fill-opacity="0.082"/><rect x="-9" y="530.5" width="12" height="17" fill="#e5d3a8" fill-opacity="0.165"/><rect x="147" y="530.5" width="12" height="17" fill="#e5d3a8" fill-opacity="0.153"/><rect x="-61" y="564.5" width="12" height="17" fill="#e5d3a8" fill-opacity="0.143"/><rect x="-9" y="564.5" width="12" height="17" fill="#e5d3a8" fill-opacity="0.096"/><rect x="121" y="598.5" width="12" height="17" fill="#e5d3a8" fill-opacity="0.097"/><rect x="-35" y="632.5" width="12" height="17" fill="#e5d3a8" fill-opacity="0.144"/><rect x="121" y="632.5" width="12" height="17" fill="#e5d3a8" fill-opacity="0.136"/><rect x="-61" y="700.5" width="12" height="17" fill="#e5d3a8" fill-opacity="0.162"/><rect x="-9" y="700.5" width="12" height="17" fill="#e5d3a8" fill-opacity="0.176"/><rect x="43" y="768.5" width="12" height="17" fill="#e5d3a8" fill-opacity="0.166"/><rect x="147" y="768.5" width="12" height="17" fill="#e5d3a8" fill-opacity="0.166"/><rect x="17" y="802.5" width="12" height="17" fill="#e5d3a8" fill-opacity="0.171"/><rect x="121" y="802.5" width="12" height="17" fill="#e5d3a8" fill-opacity="0.096"/><rect x="-35" y="836.5" width="12" height="17" fill="#e5d3a8" fill-opacity="0.086"/><rect x="-61" y="870.5" width="12" height="17" fill="#e5d3a8" fill-opacity="0.165"/><rect x="17" y="904.5" width="12" height="17" fill="#e5d3a8" fill-opacity="0.127"/><rect x="121" y="904.5" width="12" height="17" fill="#e5d3a8" fill-opacity="0.104"/><rect x="147" y="904.5" width="12" height="17" fill="#e5d3a8" fill-opacity="0.157"/><rect x="-80" y="470" width="268" height="4" fill="#191b20"/><rect x="876" y="34" width="648" height="1000" fill="url(#eth-infra-haridwar-one-gallery-04-towerface)"/><rect x="972" y="34" width="540" height="960" fill="url(#eth-infra-haridwar-one-gallery-04-winface)"/><rect x="1042.5" y="44" width="19" height="20" fill="#e5d3a8" fill-opacity="0.242"/><rect x="1074.5" y="44" width="19" height="20" fill="#e5d3a8" fill-opacity="0.225"/><rect x="1138.5" y="44" width="19" height="20" fill="#e5d3a8" fill-opacity="0.171"/><rect x="1170.5" y="44" width="19" height="20" fill="#e5d3a8" fill-opacity="0.272"/><rect x="1202.5" y="44" width="19" height="20" fill="#e5d3a8" fill-opacity="0.169"/><rect x="1234.5" y="44" width="19" height="20" fill="#e5d3a8" fill-opacity="0.223"/><rect x="978.5" y="84" width="19" height="20" fill="#e5d3a8" fill-opacity="0.139"/><rect x="1106.5" y="84" width="19" height="20" fill="#e5d3a8" fill-opacity="0.163"/><rect x="1170.5" y="84" width="19" height="20" fill="#e5d3a8" fill-opacity="0.299"/><rect x="1298.5" y="84" width="19" height="20" fill="#e5d3a8" fill-opacity="0.252"/><rect x="1106.5" y="124" width="19" height="20" fill="#e5d3a8" fill-opacity="0.194"/><rect x="1138.5" y="124" width="19" height="20" fill="#e5d3a8" fill-opacity="0.284"/><rect x="1298.5" y="124" width="19" height="20" fill="#e5d3a8" fill-opacity="0.276"/><rect x="1394.5" y="124" width="19" height="20" fill="#e5d3a8" fill-opacity="0.16"/><rect x="1106.5" y="164" width="19" height="20" fill="#e5d3a8" fill-opacity="0.213"/><rect x="1042.5" y="204" width="19" height="20" fill="#e5d3a8" fill-opacity="0.298"/><rect x="1234.5" y="204" width="19" height="20" fill="#e5d3a8" fill-opacity="0.209"/><rect x="1010.5" y="244" width="19" height="20" fill="#e5d3a8" fill-opacity="0.224"/><rect x="1266.5" y="244" width="19" height="20" fill="#e5d3a8" fill-opacity="0.183"/><rect x="1266.5" y="284" width="19" height="20" fill="#e5d3a8" fill-opacity="0.144"/><rect x="1138.5" y="324" width="19" height="20" fill="#e5d3a8" fill-opacity="0.231"/><rect x="1202.5" y="324" width="19" height="20" fill="#e5d3a8" fill-opacity="0.22"/><rect x="1362.5" y="324" width="19" height="20" fill="#e5d3a8" fill-opacity="0.262"/><rect x="1458.5" y="324" width="19" height="20" fill="#e5d3a8" fill-opacity="0.238"/><rect x="1170.5" y="364" width="19" height="20" fill="#e5d3a8" fill-opacity="0.249"/><rect x="1042.5" y="404" width="19" height="20" fill="#e5d3a8" fill-opacity="0.216"/><rect x="1074.5" y="444" width="19" height="20" fill="#e5d3a8" fill-opacity="0.272"/><rect x="1106.5" y="484" width="19" height="20" fill="#e5d3a8" fill-opacity="0.165"/><rect x="1202.5" y="524" width="19" height="20" fill="#e5d3a8" fill-opacity="0.207"/><rect x="1074.5" y="564" width="19" height="20" fill="#e5d3a8" fill-opacity="0.163"/><rect x="1394.5" y="564" width="19" height="20" fill="#e5d3a8" fill-opacity="0.162"/><rect x="1042.5" y="604" width="19" height="20" fill="#e5d3a8" fill-opacity="0.148"/><rect x="1074.5" y="604" width="19" height="20" fill="#e5d3a8" fill-opacity="0.21"/><rect x="1330.5" y="604" width="19" height="20" fill="#e5d3a8" fill-opacity="0.213"/><rect x="1426.5" y="604" width="19" height="20" fill="#e5d3a8" fill-opacity="0.299"/><rect x="1074.5" y="644" width="19" height="20" fill="#e5d3a8" fill-opacity="0.179"/><rect x="1234.5" y="644" width="19" height="20" fill="#e5d3a8" fill-opacity="0.17"/><rect x="1042.5" y="684" width="19" height="20" fill="#e5d3a8" fill-opacity="0.268"/><rect x="1074.5" y="684" width="19" height="20" fill="#e5d3a8" fill-opacity="0.281"/><rect x="1170.5" y="684" width="19" height="20" fill="#e5d3a8" fill-opacity="0.169"/><rect x="1330.5" y="684" width="19" height="20" fill="#e5d3a8" fill-opacity="0.245"/><rect x="1394.5" y="684" width="19" height="20" fill="#e5d3a8" fill-opacity="0.275"/><rect x="978.5" y="724" width="19" height="20" fill="#e5d3a8" fill-opacity="0.145"/><rect x="1010.5" y="724" width="19" height="20" fill="#e5d3a8" fill-opacity="0.292"/><rect x="1298.5" y="724" width="19" height="20" fill="#e5d3a8" fill-opacity="0.142"/><rect x="1458.5" y="724" width="19" height="20" fill="#e5d3a8" fill-opacity="0.26"/><rect x="1010.5" y="764" width="19" height="20" fill="#e5d3a8" fill-opacity="0.146"/><rect x="1330.5" y="764" width="19" height="20" fill="#e5d3a8" fill-opacity="0.254"/><rect x="1458.5" y="764" width="19" height="20" fill="#e5d3a8" fill-opacity="0.174"/><rect x="1010.5" y="844" width="19" height="20" fill="#e5d3a8" fill-opacity="0.281"/><rect x="1106.5" y="844" width="19" height="20" fill="#e5d3a8" fill-opacity="0.216"/><rect x="1330.5" y="844" width="19" height="20" fill="#e5d3a8" fill-opacity="0.211"/><rect x="1170.5" y="884" width="19" height="20" fill="#e5d3a8" fill-opacity="0.292"/><rect x="1298.5" y="884" width="19" height="20" fill="#e5d3a8" fill-opacity="0.284"/><rect x="1426.5" y="884" width="19" height="20" fill="#e5d3a8" fill-opacity="0.269"/><rect x="1042.5" y="924" width="19" height="20" fill="#e5d3a8" fill-opacity="0.241"/><rect x="1426.5" y="924" width="19" height="20" fill="#e5d3a8" fill-opacity="0.217"/><rect x="860" y="64" width="680" height="10" fill="#212429"/><rect x="860" y="64" width="680" height="2.4" fill="#3a3f47" fill-opacity="0.5"/><rect x="860" y="104" width="680" height="10" fill="#212429"/><rect x="860" y="104" width="680" height="2.4" fill="#3a3f47" fill-opacity="0.5"/><rect x="1296" y="82" width="236" height="22" fill="#191b20" stroke="#2b2f36" stroke-width="1.2" stroke-opacity="0.55"/><rect x="860" y="144" width="680" height="10" fill="#212429"/><rect x="860" y="144" width="680" height="2.4" fill="#3a3f47" fill-opacity="0.5"/><rect x="860" y="184" width="680" height="10" fill="#212429"/><rect x="860" y="184" width="680" height="2.4" fill="#3a3f47" fill-opacity="0.5"/><rect x="860" y="224" width="680" height="10" fill="#212429"/><rect x="860" y="224" width="680" height="2.4" fill="#3a3f47" fill-opacity="0.5"/><rect x="1296" y="202" width="236" height="22" fill="#191b20" stroke="#2b2f36" stroke-width="1.2" stroke-opacity="0.55"/><rect x="860" y="264" width="680" height="10" fill="#212429"/><rect x="860" y="264" width="680" height="2.4" fill="#3a3f47" fill-opacity="0.5"/><rect x="860" y="304" width="680" height="10" fill="#212429"/><rect x="860" y="304" width="680" height="2.4" fill="#3a3f47" fill-opacity="0.5"/><rect x="860" y="344" width="680" height="10" fill="#212429"/><rect x="860" y="344" width="680" height="2.4" fill="#3a3f47" fill-opacity="0.5"/><rect x="1296" y="322" width="236" height="22" fill="#191b20" stroke="#2b2f36" stroke-width="1.2" stroke-opacity="0.55"/><rect x="860" y="384" width="680" height="10" fill="#212429"/><rect x="860" y="384" width="680" height="2.4" fill="#3a3f47" fill-opacity="0.5"/><rect x="860" y="424" width="680" height="10" fill="#212429"/><rect x="860" y="424" width="680" height="2.4" fill="#3a3f47" fill-opacity="0.5"/><rect x="860" y="464" width="680" height="10" fill="#212429"/><rect x="860" y="464" width="680" height="2.4" fill="#3a3f47" fill-opacity="0.5"/><rect x="1296" y="442" width="236" height="22" fill="#191b20" stroke="#2b2f36" stroke-width="1.2" stroke-opacity="0.55"/><rect x="860" y="504" width="680" height="10" fill="#212429"/><rect x="860" y="504" width="680" height="2.4" fill="#3a3f47" fill-opacity="0.5"/><rect x="860" y="544" width="680" height="10" fill="#212429"/><rect x="860" y="544" width="680" height="2.4" fill="#3a3f47" fill-opacity="0.5"/><rect x="860" y="584" width="680" height="10" fill="#212429"/><rect x="860" y="584" width="680" height="2.4" fill="#3a3f47" fill-opacity="0.5"/><rect x="1296" y="562" width="236" height="22" fill="#191b20" stroke="#2b2f36" stroke-width="1.2" stroke-opacity="0.55"/><rect x="860" y="624" width="680" height="10" fill="#212429"/><rect x="860" y="624" width="680" height="2.4" fill="#3a3f47" fill-opacity="0.5"/><rect x="860" y="664" width="680" height="10" fill="#212429"/><rect x="860" y="664" width="680" height="2.4" fill="#3a3f47" fill-opacity="0.5"/><rect x="860" y="704" width="680" height="10" fill="#212429"/><rect x="860" y="704" width="680" height="2.4" fill="#3a3f47" fill-opacity="0.5"/><rect x="1296" y="682" width="236" height="22" fill="#191b20" stroke="#2b2f36" stroke-width="1.2" stroke-opacity="0.55"/><rect x="860" y="744" width="680" height="10" fill="#212429"/><rect x="860" y="744" width="680" height="2.4" fill="#3a3f47" fill-opacity="0.5"/><rect x="860" y="784" width="680" height="10" fill="#212429"/><rect x="860" y="784" width="680" height="2.4" fill="#3a3f47" fill-opacity="0.5"/><rect x="860" y="824" width="680" height="10" fill="#212429"/><rect x="860" y="824" width="680" height="2.4" fill="#3a3f47" fill-opacity="0.5"/><rect x="1296" y="802" width="236" height="22" fill="#191b20" stroke="#2b2f36" stroke-width="1.2" stroke-opacity="0.55"/><rect x="860" y="864" width="680" height="10" fill="#212429"/><rect x="860" y="864" width="680" height="2.4" fill="#3a3f47" fill-opacity="0.5"/><rect x="860" y="904" width="680" height="10" fill="#212429"/><rect x="860" y="904" width="680" height="2.4" fill="#3a3f47" fill-opacity="0.5"/><rect x="860" y="944" width="680" height="10" fill="#212429"/><rect x="860" y="944" width="680" height="2.4" fill="#3a3f47" fill-opacity="0.5"/><rect x="1296" y="922" width="236" height="22" fill="#191b20" stroke="#2b2f36" stroke-width="1.2" stroke-opacity="0.55"/><rect x="876" y="34" width="92" height="1000" fill="#131418"/><rect x="964" y="34" width="3" height="1000" fill="#2b2f36" fill-opacity="0.45"/><rect x="824" y="392" width="752" height="14" fill="#212429"/><rect x="832" y="370" width="2.2" height="22" fill="#5a616b" fill-opacity="0.5"/><rect x="860" y="370" width="2.2" height="22" fill="#5a616b" fill-opacity="0.5"/><rect x="888" y="370" width="2.2" height="22" fill="#5a616b" fill-opacity="0.5"/><rect x="916" y="370" width="2.2" height="22" fill="#5a616b" fill-opacity="0.5"/><rect x="944" y="370" width="2.2" height="22" fill="#5a616b" fill-opacity="0.5"/><rect x="972" y="370" width="2.2" height="22" fill="#5a616b" fill-opacity="0.5"/><rect x="1000" y="370" width="2.2" height="22" fill="#5a616b" fill-opacity="0.5"/><rect x="1028" y="370" width="2.2" height="22" fill="#5a616b" fill-opacity="0.5"/><rect x="1056" y="370" width="2.2" height="22" fill="#5a616b" fill-opacity="0.5"/><rect x="1084" y="370" width="2.2" height="22" fill="#5a616b" fill-opacity="0.5"/><rect x="1112" y="370" width="2.2" height="22" fill="#5a616b" fill-opacity="0.5"/><rect x="1140" y="370" width="2.2" height="22" fill="#5a616b" fill-opacity="0.5"/><rect x="1168" y="370" width="2.2" height="22" fill="#5a616b" fill-opacity="0.5"/><rect x="1196" y="370" width="2.2" height="22" fill="#5a616b" fill-opacity="0.5"/><rect x="1224" y="370" width="2.2" height="22" fill="#5a616b" fill-opacity="0.5"/><rect x="1252" y="370" width="2.2" height="22" fill="#5a616b" fill-opacity="0.5"/><rect x="1280" y="370" width="2.2" height="22" fill="#5a616b" fill-opacity="0.5"/><rect x="1308" y="370" width="2.2" height="22" fill="#5a616b" fill-opacity="0.5"/><rect x="1336" y="370" width="2.2" height="22" fill="#5a616b" fill-opacity="0.5"/><rect x="1364" y="370" width="2.2" height="22" fill="#5a616b" fill-opacity="0.5"/><rect x="1392" y="370" width="2.2" height="22" fill="#5a616b" fill-opacity="0.5"/><rect x="1420" y="370" width="2.2" height="22" fill="#5a616b" fill-opacity="0.5"/><rect x="1448" y="370" width="2.2" height="22" fill="#5a616b" fill-opacity="0.5"/><rect x="1476" y="370" width="2.2" height="22" fill="#5a616b" fill-opacity="0.5"/><rect x="1504" y="370" width="2.2" height="22" fill="#5a616b" fill-opacity="0.5"/><rect x="1532" y="370" width="2.2" height="22" fill="#5a616b" fill-opacity="0.5"/><rect x="824" y="368" width="752" height="2.4" fill="#e5d3a8" fill-opacity="0.4"/><rect x="1498" y="34" width="30" height="1000" fill="url(#eth-infra-haridwar-one-gallery-04-towerrim)"/><rect x="1526" y="34" width="2.6" height="1000" fill="#e5d3a8" fill-opacity="0.5"/><rect x="876" y="34" width="648" height="3" fill="#e5d3a8" fill-opacity="0.28"/><rect x="576" y="1034" width="1248" height="132" fill="#212429"/><rect x="576" y="1034" width="1248" height="3" fill="#3a3f47" fill-opacity="0.55"/><rect x="1104" y="1052" width="210" height="114" fill="url(#eth-infra-haridwar-one-gallery-04-portal)"/><rect x="1090" y="1040" width="238" height="8" fill="#2b2f36"/><rect x="608" y="1080" width="62" height="86" fill="#e5d3a8" fill-opacity="0.068"/><rect x="714" y="1080" width="62" height="86" fill="#e5d3a8" fill-opacity="0.068"/><rect x="820" y="1080" width="62" height="86" fill="#e5d3a8" fill-opacity="0.068"/><rect x="926" y="1080" width="62" height="86" fill="#e5d3a8" fill-opacity="0.068"/><rect x="1032" y="1080" width="62" height="86" fill="#e5d3a8" fill-opacity="0.068"/><rect x="1138" y="1080" width="62" height="86" fill="#e5d3a8" fill-opacity="0.068"/><rect x="1244" y="1080" width="62" height="86" fill="#e5d3a8" fill-opacity="0.068"/><rect x="1350" y="1080" width="62" height="86" fill="#e5d3a8" fill-opacity="0.068"/><path d="M -1800 1222 q 52.09 -85.33 104.19 0 q 74.57 -55.27 149.14 0 q 54.23 -95.63 108.47 0 q 64.56 -55.68 129.12 0 q 43.57 -94.78 87.14 0 q 46.45 -37.27 92.9 0 q 77.15 -79.19 154.3 0 q 70.24 -70.55 140.47 0 q 59.44 -51.79 118.87 0 q 53.02 -89.43 106.03 0 q 38.07 -37.39 76.15 0 q 66.42 -61.72 132.83 0 q 63.87 -81.95 127.75 0 q 66.41 -57.74 132.81 0 q 50.71 -60.29 101.41 0 q 65.38 -82.05 130.76 0 q 45.22 -83.81 90.44 0 q 59.74 -54.49 119.48 0 q 56.7 -93.76 113.41 0 q 51.28 -79.88 102.55 0 q 73.54 -51.41 147.09 0 q 77.09 -74.96 154.17 0 q 66.98 -42.8 133.95 0 q 47.4 -59.94 94.81 0 q 43.72 -68.78 87.44 0 q 63.33 -64.36 126.65 0 q 38.73 -53.91 77.47 0 q 75.75 -47.97 151.51 0 q 44.16 -45.19 88.31 0 q 61.54 -40.86 123.09 0 q 68.97 -43.83 137.94 0 q 34.24 -77.24 68.48 0 q 58.56 -41.92 117.13 0 q 42.03 -54.92 84.06 0 q 68.05 -85.71 136.1 0 q 38.08 -68 76.16 0 q 58.53 -73.1 117.06 0 q 70.78 -37.17 141.57 0 q 51.43 -57.92 102.86 0 q 64.53 -75.21 129.06 0 q 36.51 -85.04 73.01 0 q 38.73 -83.6 77.46 0 q 43.32 -84.7 86.63 0 q 72.29 -80.52 144.58 0 q 44.33 -40.16 88.66 0 q 35.89 -73.87 71.77 0 q 74.37 -92.33 148.74 0 q 36.19 -90.1 72.38 0 q 55.43 -58.87 110.86 0 q 53.77 -47.95 107.53 0 q 63.31 -52.94 126.62 0 q 43.03 -51.45 86.06 0 q 44.6 -91.55 89.21 0 q 62.41 -88.21 124.82 0 q 53.09 -56.37 106.17 0 q 54.01 -41.77 108.02 0 L 4435.63 1682 L -1800 1682 Z" fill="#0e0f12"/><rect x="-1800" y="1290" width="6200" height="1610" fill="#212429" fill-opacity="0.9"/><rect x="-1800" y="1290" width="6200" height="3" fill="#3a3f47" fill-opacity="0.4"/><rect x="-317.47" y="1246.94" width="3" height="70" fill="#060607" fill-opacity="0.7"/><rect x="-221.54" y="1221.11" width="3" height="70" fill="#060607" fill-opacity="0.7"/><rect x="-97.82" y="1221.23" width="3" height="70" fill="#060607" fill-opacity="0.7"/><rect x="-18.5" y="1237.18" width="3" height="70" fill="#060607" fill-opacity="0.7"/><rect x="83.4" y="1231.63" width="3" height="70" fill="#060607" fill-opacity="0.7"/><rect x="196.56" y="1222.53" width="3" height="70" fill="#060607" fill-opacity="0.7"/><rect x="295.26" y="1238.36" width="3" height="70" fill="#060607" fill-opacity="0.7"/><rect x="350.21" y="1248.02" width="3" height="70" fill="#060607" fill-opacity="0.7"/><rect x="486.99" y="1235.91" width="3" height="70" fill="#060607" fill-opacity="0.7"/><rect x="573.08" y="1253.44" width="3" height="70" fill="#060607" fill-opacity="0.7"/><rect x="655.81" y="1249.23" width="3" height="70" fill="#060607" fill-opacity="0.7"/><rect x="774.25" y="1221.78" width="3" height="70" fill="#060607" fill-opacity="0.7"/><rect x="857.73" y="1229.59" width="3" height="70" fill="#060607" fill-opacity="0.7"/><rect x="955.8" y="1255.9" width="3" height="70" fill="#060607" fill-opacity="0.7"/><rect x="1026.24" y="1252.12" width="3" height="70" fill="#060607" fill-opacity="0.7"/><rect x="1130.75" y="1227.18" width="3" height="70" fill="#060607" fill-opacity="0.7"/><rect x="1248.81" y="1240.31" width="3" height="70" fill="#060607" fill-opacity="0.7"/><rect x="1311.47" y="1232.93" width="3" height="70" fill="#060607" fill-opacity="0.7"/><rect x="1427.62" y="1239.17" width="3" height="70" fill="#060607" fill-opacity="0.7"/><rect x="1516.59" y="1261.34" width="3" height="70" fill="#060607" fill-opacity="0.7"/><rect x="1602.94" y="1223.19" width="3" height="70" fill="#060607" fill-opacity="0.7"/><rect x="1704.72" y="1258.4" width="3" height="70" fill="#060607" fill-opacity="0.7"/><rect x="1817.19" y="1245.2" width="3" height="70" fill="#060607" fill-opacity="0.7"/><rect x="1897.59" y="1225.94" width="3" height="70" fill="#060607" fill-opacity="0.7"/><rect x="1997.83" y="1227.11" width="3" height="70" fill="#060607" fill-opacity="0.7"/><rect x="2115.39" y="1241.34" width="3" height="70" fill="#060607" fill-opacity="0.7"/><rect x="2202.86" y="1261.1" width="3" height="70" fill="#060607" fill-opacity="0.7"/><rect x="2274.67" y="1248.04" width="3" height="70" fill="#060607" fill-opacity="0.7"/><rect x="2400.84" y="1250.53" width="3" height="70" fill="#060607" fill-opacity="0.7"/><rect x="2465.83" y="1242.16" width="3" height="70" fill="#060607" fill-opacity="0.7"/></g><rect x="0" y="0" width="1600" height="1100" fill="#c9a961" fill-opacity="0.06"/><rect x="0" y="0" width="1600" height="1100" fill="url(#eth-infra-haridwar-one-gallery-04-grid)" opacity="0.05"/><rect x="0" y="0" width="1600" height="1100" fill="url(#eth-infra-haridwar-one-gallery-04-vignette)"/><rect x="0" y="0" width="1600" height="1100" fill="#060607" filter="url(#eth-infra-haridwar-one-gallery-04-grain)" opacity="0.13"/></svg>
