<svg xmlns="http://www.w3.org/2000/svg" width="1600" height="1100" viewBox="0 0 1600 1100" preserveAspectRatio="xMidYMid slice" role="img" aria-labelledby="verdaant-court-gallery-03-title"><title id="verdaant-court-gallery-03-title">Verdaant Court — abstract rendering of the green buffer</title><desc>Generated stand-in artwork: abstract rendering of the green buffer. Not a photograph of the property.</desc><defs><linearGradient id="verdaant-court-gallery-03-ground" gradientUnits="userSpaceOnUse" x1="0" y1="820" x2="0" y2="2900"><stop offset="0" stop-color="#0e0f12"/><stop offset="0.42" stop-color="#121317"/><stop offset="1" stop-color="#121317"/></linearGradient><linearGradient id="verdaant-court-gallery-03-road" gradientUnits="userSpaceOnUse" x1="0" y1="870" x2="0" y2="1424.7"><stop offset="0" stop-color="#191b20" stop-opacity="0.5"/><stop offset="0.55" stop-color="#212429" stop-opacity="0.8"/><stop offset="1" stop-color="#2b2f36" stop-opacity="0.85"/></linearGradient><linearGradient id="verdaant-court-gallery-03-sky" gradientUnits="userSpaceOnUse" x1="0" y1="0" x2="0" y2="1100"><stop offset="0" stop-color="#080a0c"/><stop offset="0.02" stop-color="#111519"/><stop offset="0.356" stop-color="#1e2321"/><stop offset="1" stop-color="#0b0d0e"/></linearGradient><radialGradient id="verdaant-court-gallery-03-glow" gradientUnits="userSpaceOnUse" cx="245.6" cy="220" r="1472"><stop offset="0" stop-color="#c9a961" stop-opacity="0.32"/><stop offset="0.3" stop-color="#c9a961" stop-opacity="0.134"/><stop offset="0.66" stop-color="#c9a961" stop-opacity="0.038"/><stop offset="1" stop-color="#c9a961" stop-opacity="0"/></radialGradient><linearGradient id="verdaant-court-gallery-03-haze" gradientUnits="userSpaceOnUse" x1="0" y1="61.6" x2="0" y2="567.6"><stop offset="0" stop-color="#5c7d5b" stop-opacity="0"/><stop offset="0.62" stop-color="#5c7d5b" stop-opacity="0.32"/><stop offset="0.82" stop-color="#5c7d5b" stop-opacity="0.16"/><stop offset="1" stop-color="#5c7d5b" stop-opacity="0"/></linearGradient><pattern id="verdaant-court-gallery-03-grid" width="18" height="18" patternUnits="userSpaceOnUse"><rect x="0" y="0" width="1" height="18" fill="#f5f3ee" fill-opacity="0.5"/></pattern><radialGradient id="verdaant-court-gallery-03-vignette" cx="0.5" cy="0.46" r="0.78"><stop offset="0.3" stop-color="#000000" stop-opacity="0"/><stop offset="0.68" stop-color="#000000" stop-opacity="0.26"/><stop offset="1" stop-color="#060607" stop-opacity="0.82"/></radialGradient><filter id="verdaant-court-gallery-03-grain" x="-2%" y="-2%" width="104%" height="104%" color-interpolation-filters="sRGB"><feTurbulence type="fractalNoise" baseFrequency="0.82" numOctaves="3" seed="11" stitchTiles="stitch" result="noise"/><feColorMatrix in="noise" type="matrix" values="0 0 0 0 1 0 0 0 0 1 0 0 0 0 1 0.9 0 0 0 -0.36"/></filter></defs><rect x="0" y="0" width="1600" height="1100" fill="url(#verdaant-court-gallery-03-sky)"/><rect x="0" y="0" width="1600" height="1100" fill="url(#verdaant-court-gallery-03-glow)"/><rect x="0" y="0" width="1600" height="1100" fill="url(#verdaant-court-gallery-03-haze)"/><g transform="translate(-1787.2 -690.8) scale(1.3)"><polygon points="-1800,774.3 -1550,770.9 -1300,770.5 -1050,747.2 -800,699.7 -550,669.5 -300,660.5 -50,652.9 200,663.1 450,693 700,703.8 950,693.7 1200,693.7 1450,696.4 1700,694.4 1950,717.7 2200,762.9 2450,789.7 2700,799.4 2950,807.1 3200,791.7 3450,756.5 3700,741.9 3950,745.4 4200,740.3 4450,739.2 4650,2900 -1800,2900" fill="#0e0f12"/><rect x="-1800" y="820" width="6200" height="2080" fill="url(#verdaant-court-gallery-03-ground)"/><path d="M -1800 854 q 59.4 -80 118.9 0 q 29.9 -63.5 59.8 0 q 36.1 -48.1 72.3 0 q 33.1 -35.2 66.2 0 q 58.4 -59.9 116.7 0 q 39.4 -66.6 78.7 0 q 55.8 -47.4 111.6 0 q 40.2 -66.4 80.4 0 q 61 -37.3 122.1 0 q 44.7 -75.9 89.5 0 q 46.3 -58.1 92.6 0 q 50.7 -82.6 101.4 0 q 57.5 -82 115 0 q 32.7 -53.4 65.4 0 q 35.6 -64.2 71.2 0 q 57.6 -75.7 115.2 0 q 41.8 -52.3 83.5 0 q 51.6 -64 103.2 0 q 39 -82.9 78 0 q 66.9 -66 133.8 0 q 53.9 -77.4 107.8 0 q 56.6 -38.1 113.3 0 q 32.5 -63.9 65 0 q 54.8 -52.7 109.5 0 q 36.1 -40.3 72.1 0 q 29.5 -50.8 58.9 0 q 28.8 -36.4 57.7 0 q 54.4 -61.4 108.9 0 q 54.2 -39.3 108.5 0 q 29.9 -48 59.8 0 q 42.4 -44.4 84.7 0 q 49.8 -47.1 99.6 0 q 53.9 -81.2 107.8 0 q 43.1 -48.8 86.2 0 q 49.4 -72.7 98.9 0 q 61.6 -83 123.1 0 q 56.2 -59.2 112.5 0 q 58.3 -59.6 116.6 0 q 29.1 -68 58.1 0 q 46.4 -34.1 92.7 0 q 36.4 -35.5 72.7 0 q 29 -61.6 58 0 q 51.6 -51.9 103.2 0 q 46 -58.9 92 0 q 39.7 -47.3 79.5 0 q 49.5 -69.6 99 0 q 53.4 -49.4 106.8 0 q 66 -55.8 131.9 0 q 50.8 -47.2 101.7 0 q 49.1 -52.7 98.2 0 q 40.9 -65.1 81.7 0 q 67.2 -69.7 134.3 0 q 48.1 -49.5 96.1 0 q 65.9 -40.6 131.8 0 q 29.9 -33.5 59.8 0 q 34.9 -73.2 69.8 0 q 32.9 -76.2 65.7 0 q 48.1 -55.6 96.2 0 q 64 -78.8 128.1 0 q 46.9 -67.7 93.8 0 q 29.1 -46.3 58.3 0 q 61.9 -55.2 123.9 0 q 46.4 -52.8 92.8 0 q 65.6 -61.2 131.3 0 q 51.7 -38 103.5 0 q 34.1 -75.1 68.3 0 q 67.1 -53.5 134.1 0 L 4529.4 1314 L -1800 1314 Z" fill="#0a0c0c"/><polygon points="995.3,1424.7 1404.7,1424.7 1216.9,870 1183.1,870" fill="url(#verdaant-court-gallery-03-road)"/><line x1="1200" y1="1424.7" x2="1200" y2="1359.9" stroke="#7d9d7b" stroke-width="11.6" stroke-opacity="0.34"/><line x1="1200" y1="1307.6" x2="1200" y2="1255.4" stroke="#7d9d7b" stroke-width="9.4" stroke-opacity="0.34"/><line x1="1200" y1="1213.2" x2="1200" y2="1171.1" stroke="#7d9d7b" stroke-width="7.6" stroke-opacity="0.34"/><line x1="1200" y1="1137.1" x2="1200" y2="1103.2" stroke="#7d9d7b" stroke-width="6.1" stroke-opacity="0.34"/><line x1="1200" y1="1075.8" x2="1200" y2="1048.3" stroke="#7d9d7b" stroke-width="4.9" stroke-opacity="0.34"/><line x1="1200" y1="1026.3" x2="1200" y2="1004.2" stroke="#7d9d7b" stroke-width="4" stroke-opacity="0.34"/><line x1="1200" y1="986.3" x2="1200" y2="968.5" stroke="#7d9d7b" stroke-width="3.2" stroke-opacity="0.34"/><line x1="1200" y1="954.1" x2="1200" y2="939.8" stroke="#7d9d7b" stroke-width="2.6" stroke-opacity="0.34"/><line x1="1200" y1="928.2" x2="1200" y2="916.6" stroke="#7d9d7b" stroke-width="2.1" stroke-opacity="0.34"/><line x1="1200" y1="907.2" x2="1200" y2="897.9" stroke="#7d9d7b" stroke-width="1.7" stroke-opacity="0.34"/><line x1="1200" y1="890.4" x2="1200" y2="882.8" stroke="#7d9d7b" stroke-width="1.4" stroke-opacity="0.34"/><line x1="1200" y1="876.7" x2="1200" y2="870.7" stroke="#7d9d7b" stroke-width="1.1" stroke-opacity="0.34"/><line x1="-1079.1" y1="1424.7" x2="1011.5" y2="870" stroke="#5a616b" stroke-width="1.6" stroke-opacity="0.4"/><line x1="-753.5" y1="1424.7" x2="1038.5" y2="870" stroke="#5a616b" stroke-width="1.6" stroke-opacity="0.2"/><line x1="-427.9" y1="1424.7" x2="1065.4" y2="870" stroke="#5a616b" stroke-width="1.6" stroke-opacity="0.2"/><line x1="-102.3" y1="1424.7" x2="1092.3" y2="870" stroke="#5a616b" stroke-width="1.6" stroke-opacity="0.2"/><line x1="223.3" y1="1424.7" x2="1119.2" y2="870" stroke="#5a616b" stroke-width="1.6" stroke-opacity="0.2"/><line x1="548.8" y1="1424.7" x2="1146.2" y2="870" stroke="#5a616b" stroke-width="1.6" stroke-opacity="0.2"/><line x1="874.4" y1="1424.7" x2="1173.1" y2="870" stroke="#5a616b" stroke-width="1.6" stroke-opacity="0.2"/><line x1="1525.6" y1="1424.7" x2="1226.9" y2="870" stroke="#5a616b" stroke-width="1.6" stroke-opacity="0.2"/><line x1="1851.2" y1="1424.7" x2="1253.8" y2="870" stroke="#5a616b" stroke-width="1.6" stroke-opacity="0.2"/><line x1="2176.7" y1="1424.7" x2="1280.8" y2="870" stroke="#5a616b" stroke-width="1.6" stroke-opacity="0.2"/><line x1="2502.3" y1="1424.7" x2="1307.7" y2="870" stroke="#5a616b" stroke-width="1.6" stroke-opacity="0.2"/><line x1="2827.9" y1="1424.7" x2="1334.6" y2="870" stroke="#5a616b" stroke-width="1.6" stroke-opacity="0.2"/><line x1="3153.5" y1="1424.7" x2="1361.5" y2="870" stroke="#5a616b" stroke-width="1.6" stroke-opacity="0.2"/><line x1="3479.1" y1="1424.7" x2="1388.5" y2="870" stroke="#5a616b" stroke-width="1.6" stroke-opacity="0.4"/><line x1="-1079.1" y1="1424.7" x2="3479.1" y2="1424.7" stroke="#5a616b" stroke-width="5.6" stroke-opacity="0.22"/><line x1="-645.4" y1="1309.6" x2="3045.4" y2="1309.6" stroke="#5a616b" stroke-width="4.5" stroke-opacity="0.22"/><line x1="-294.3" y1="1216.4" x2="2694.3" y2="1216.4" stroke="#5a616b" stroke-width="3.7" stroke-opacity="0.22"/><line x1="-9.9" y1="1141" x2="2409.9" y2="1141" stroke="#5a616b" stroke-width="3" stroke-opacity="0.22"/><line x1="220.3" y1="1079.9" x2="2179.7" y2="1079.9" stroke="#5a616b" stroke-width="2.4" stroke-opacity="0.22"/><line x1="406.7" y1="1030.5" x2="1993.3" y2="1030.5" stroke="#5a616b" stroke-width="1.9" stroke-opacity="0.22"/><line x1="557.7" y1="990.4" x2="1842.3" y2="990.4" stroke="#5a616b" stroke-width="1.6" stroke-opacity="0.22"/><line x1="679.9" y1="958" x2="1720.1" y2="958" stroke="#5a616b" stroke-width="1.3" stroke-opacity="0.22"/><line x1="778.9" y1="931.7" x2="1621.1" y2="931.7" stroke="#5a616b" stroke-width="1" stroke-opacity="0.22"/><line x1="859" y1="910.5" x2="1541" y2="910.5" stroke="#5a616b" stroke-width="1" stroke-opacity="0.22"/><line x1="923.9" y1="893.3" x2="1476.1" y2="893.3" stroke="#5a616b" stroke-width="1" stroke-opacity="0.22"/><line x1="976.4" y1="879.3" x2="1423.6" y2="879.3" stroke="#5a616b" stroke-width="1" stroke-opacity="0.22"/><rect x="-1080.5" y="1373.5" width="2.8" height="51.2" fill="#7d9d7b" fill-opacity="0.34"/><rect x="-429.3" y="1373.5" width="2.8" height="51.2" fill="#7d9d7b" fill-opacity="0.34"/><rect x="221.9" y="1373.5" width="2.8" height="51.2" fill="#7d9d7b" fill-opacity="0.34"/><rect x="873" y="1373.5" width="2.8" height="51.2" fill="#7d9d7b" fill-opacity="0.34"/><rect x="1524.2" y="1373.5" width="2.8" height="51.2" fill="#7d9d7b" fill-opacity="0.34"/><rect x="2175.3" y="1373.5" width="2.8" height="51.2" fill="#7d9d7b" fill-opacity="0.34"/><rect x="2826.5" y="1373.5" width="2.8" height="51.2" fill="#7d9d7b" fill-opacity="0.34"/><rect x="3477.7" y="1373.5" width="2.8" height="51.2" fill="#7d9d7b" fill-opacity="0.34"/><rect x="-646.8" y="1268.2" width="2.8" height="41.4" fill="#7d9d7b" fill-opacity="0.34"/><rect x="-119.5" y="1268.2" width="2.8" height="41.4" fill="#7d9d7b" fill-opacity="0.34"/><rect x="407.7" y="1268.2" width="2.8" height="41.4" fill="#7d9d7b" fill-opacity="0.34"/><rect x="935" y="1268.2" width="2.8" height="41.4" fill="#7d9d7b" fill-opacity="0.34"/><rect x="1462.2" y="1268.2" width="2.8" height="41.4" fill="#7d9d7b" fill-opacity="0.34"/><rect x="1989.5" y="1268.2" width="2.8" height="41.4" fill="#7d9d7b" fill-opacity="0.34"/><rect x="2516.7" y="1268.2" width="2.8" height="41.4" fill="#7d9d7b" fill-opacity="0.34"/><rect x="3044" y="1268.2" width="2.8" height="41.4" fill="#7d9d7b" fill-opacity="0.34"/><rect x="-295.7" y="1182.9" width="2.8" height="33.5" fill="#7d9d7b" fill-opacity="0.34"/><rect x="131.3" y="1182.9" width="2.8" height="33.5" fill="#7d9d7b" fill-opacity="0.34"/><rect x="558.2" y="1182.9" width="2.8" height="33.5" fill="#7d9d7b" fill-opacity="0.34"/><rect x="985.1" y="1182.9" width="2.8" height="33.5" fill="#7d9d7b" fill-opacity="0.34"/><rect x="1412.1" y="1182.9" width="2.8" height="33.5" fill="#7d9d7b" fill-opacity="0.34"/><rect x="1839" y="1182.9" width="2.8" height="33.5" fill="#7d9d7b" fill-opacity="0.34"/><rect x="2265.9" y="1182.9" width="2.8" height="33.5" fill="#7d9d7b" fill-opacity="0.34"/><rect x="2692.9" y="1182.9" width="2.8" height="33.5" fill="#7d9d7b" fill-opacity="0.34"/><rect x="-11.3" y="1113.8" width="2.8" height="27.2" fill="#7d9d7b" fill-opacity="0.34"/><rect x="334.4" y="1113.8" width="2.8" height="27.2" fill="#7d9d7b" fill-opacity="0.34"/><rect x="680.1" y="1113.8" width="2.8" height="27.2" fill="#7d9d7b" fill-opacity="0.34"/><rect x="1025.8" y="1113.8" width="2.8" height="27.2" fill="#7d9d7b" fill-opacity="0.34"/><rect x="1371.4" y="1113.8" width="2.8" height="27.2" fill="#7d9d7b" fill-opacity="0.34"/><rect x="1717.1" y="1113.8" width="2.8" height="27.2" fill="#7d9d7b" fill-opacity="0.34"/><rect x="2062.8" y="1113.8" width="2.8" height="27.2" fill="#7d9d7b" fill-opacity="0.34"/><rect x="2408.5" y="1113.8" width="2.8" height="27.2" fill="#7d9d7b" fill-opacity="0.34"/><rect x="218.9" y="1057.9" width="2.8" height="22" fill="#7d9d7b" fill-opacity="0.34"/><rect x="498.8" y="1057.9" width="2.8" height="22" fill="#7d9d7b" fill-opacity="0.34"/><rect x="778.7" y="1057.9" width="2.8" height="22" fill="#7d9d7b" fill-opacity="0.34"/><rect x="1058.6" y="1057.9" width="2.8" height="22" fill="#7d9d7b" fill-opacity="0.34"/><rect x="1338.6" y="1057.9" width="2.8" height="22" fill="#7d9d7b" fill-opacity="0.34"/><rect x="1618.5" y="1057.9" width="2.8" height="22" fill="#7d9d7b" fill-opacity="0.34"/><rect x="1898.4" y="1057.9" width="2.8" height="22" fill="#7d9d7b" fill-opacity="0.34"/><rect x="2178.3" y="1057.9" width="2.8" height="22" fill="#7d9d7b" fill-opacity="0.34"/><rect x="405.3" y="1012.7" width="2.8" height="17.8" fill="#7d9d7b" fill-opacity="0.34"/><rect x="632" y="1012.7" width="2.8" height="17.8" fill="#7d9d7b" fill-opacity="0.34"/><rect x="858.6" y="1012.7" width="2.8" height="17.8" fill="#7d9d7b" fill-opacity="0.34"/><rect x="1085.3" y="1012.7" width="2.8" height="17.8" fill="#7d9d7b" fill-opacity="0.34"/><rect x="1311.9" y="1012.7" width="2.8" height="17.8" fill="#7d9d7b" fill-opacity="0.34"/><rect x="1538.6" y="1012.7" width="2.8" height="17.8" fill="#7d9d7b" fill-opacity="0.34"/><rect x="1765.2" y="1012.7" width="2.8" height="17.8" fill="#7d9d7b" fill-opacity="0.34"/><rect x="1991.9" y="1012.7" width="2.8" height="17.8" fill="#7d9d7b" fill-opacity="0.34"/><rect x="556.3" y="976" width="2.8" height="14.4" fill="#7d9d7b" fill-opacity="0.34"/><rect x="739.8" y="976" width="2.8" height="14.4" fill="#7d9d7b" fill-opacity="0.34"/><rect x="923.3" y="976" width="2.8" height="14.4" fill="#7d9d7b" fill-opacity="0.34"/><rect x="1106.8" y="976" width="2.8" height="14.4" fill="#7d9d7b" fill-opacity="0.34"/><rect x="1290.4" y="976" width="2.8" height="14.4" fill="#7d9d7b" fill-opacity="0.34"/><rect x="1473.9" y="976" width="2.8" height="14.4" fill="#7d9d7b" fill-opacity="0.34"/><rect x="1657.4" y="976" width="2.8" height="14.4" fill="#7d9d7b" fill-opacity="0.34"/><rect x="1840.9" y="976" width="2.8" height="14.4" fill="#7d9d7b" fill-opacity="0.34"/><rect x="-1223.3" y="1289.8" width="9.3" height="134.9" fill="#060607" fill-opacity="0.85"/><rect x="-853.6" y="1218.1" width="7.9" height="114.3" fill="#060607" fill-opacity="0.85"/><rect x="-540.3" y="1157.4" width="6.7" height="96.9" fill="#060607" fill-opacity="0.85"/><rect x="-274.9" y="1105.9" width="5.7" height="82.1" fill="#060607" fill-opacity="0.85"/><rect x="-49.9" y="1062.3" width="4.8" height="69.6" fill="#060607" fill-opacity="0.85"/><rect x="140.8" y="1025.3" width="4.1" height="59" fill="#060607" fill-opacity="0.85"/><rect x="302.3" y="994" width="3.4" height="50" fill="#060607" fill-opacity="0.85"/><rect x="439.3" y="967.5" width="2.9" height="42.3" fill="#060607" fill-opacity="0.85"/><rect x="555.3" y="945" width="2.5" height="35.9" fill="#060607" fill-opacity="0.85"/><rect x="653.7" y="925.9" width="2.1" height="30.4" fill="#060607" fill-opacity="0.85"/><rect x="737" y="909.8" width="1.8" height="25.8" fill="#060607" fill-opacity="0.85"/><rect x="807.6" y="896.1" width="1.5" height="21.8" fill="#060607" fill-opacity="0.85"/><rect x="867.5" y="884.5" width="1.3" height="18.5" fill="#060607" fill-opacity="0.85"/><rect x="918.2" y="874.6" width="1.1" height="15.7" fill="#060607" fill-opacity="0.85"/><rect x="961.1" y="866.3" width="1" height="13.3" fill="#060607" fill-opacity="0.85"/><rect x="997.5" y="859.2" width="1" height="11.3" fill="#060607" fill-opacity="0.85"/><line x1="-1218.6" y1="1317.7" x2="1000" y2="861.2" stroke="#5a616b" stroke-width="1.8" stroke-opacity="0.28"/><rect x="3614" y="1289.8" width="9.3" height="134.9" fill="#060607" fill-opacity="0.85"/><rect x="3245.7" y="1218.1" width="7.9" height="114.3" fill="#060607" fill-opacity="0.85"/><rect x="2933.7" y="1157.4" width="6.7" height="96.9" fill="#060607" fill-opacity="0.85"/><rect x="2669.2" y="1105.9" width="5.7" height="82.1" fill="#060607" fill-opacity="0.85"/><rect x="2445.1" y="1062.3" width="4.8" height="69.6" fill="#060607" fill-opacity="0.85"/><rect x="2255.2" y="1025.3" width="4.1" height="59" fill="#060607" fill-opacity="0.85"/><rect x="2094.2" y="994" width="3.4" height="50" fill="#060607" fill-opacity="0.85"/><rect x="1957.8" y="967.5" width="2.9" height="42.3" fill="#060607" fill-opacity="0.85"/><rect x="1842.2" y="945" width="2.5" height="35.9" fill="#060607" fill-opacity="0.85"/><rect x="1744.2" y="925.9" width="2.1" height="30.4" fill="#060607" fill-opacity="0.85"/><rect x="1661.2" y="909.8" width="1.8" height="25.8" fill="#060607" fill-opacity="0.85"/><rect x="1590.9" y="896.1" width="1.5" height="21.8" fill="#060607" fill-opacity="0.85"/><rect x="1531.2" y="884.5" width="1.3" height="18.5" fill="#060607" fill-opacity="0.85"/><rect x="1480.7" y="874.6" width="1.1" height="15.7" fill="#060607" fill-opacity="0.85"/><rect x="1437.9" y="866.3" width="1" height="13.3" fill="#060607" fill-opacity="0.85"/><rect x="1401.5" y="859.2" width="1" height="11.3" fill="#060607" fill-opacity="0.85"/><line x1="3618.6" y1="1317.7" x2="1400" y2="861.2" stroke="#5a616b" stroke-width="1.8" stroke-opacity="0.28"/><rect x="-1461.6" y="1063.1" width="20.9" height="361.5" fill="#060907"/><circle cx="-1336.6" cy="995.7" r="208.5" fill="#060907" fill-opacity="1"/><circle cx="-1397.5" cy="1090.4" r="268.4" fill="#060907" fill-opacity="1"/><circle cx="-1608.1" cy="997.5" r="199.7" fill="#060907" fill-opacity="1"/><circle cx="-1415.9" cy="945.3" r="176.2" fill="#060907" fill-opacity="1"/><circle cx="-1158.3" cy="1124.8" r="202.9" fill="#060907" fill-opacity="1"/><circle cx="-1255.9" cy="1143.6" r="138.9" fill="#060907" fill-opacity="1"/><circle cx="-1260" cy="1077.6" r="124.5" fill="#060907" fill-opacity="1"/><rect x="3840.7" y="1088.7" width="20.9" height="335.9" fill="#060907"/><circle cx="4006.7" cy="1029.4" r="240" fill="#060907" fill-opacity="1"/><circle cx="3847.5" cy="1089.3" r="209.7" fill="#060907" fill-opacity="1"/><circle cx="3755.3" cy="1042.7" r="210.5" fill="#060907" fill-opacity="1"/><circle cx="3827.1" cy="945.7" r="165.7" fill="#060907" fill-opacity="1"/><circle cx="4116" cy="1148.5" r="186.4" fill="#060907" fill-opacity="1"/><circle cx="3965.9" cy="1185.7" r="185.8" fill="#060907" fill-opacity="1"/><circle cx="4011.7" cy="1113.9" r="119.4" fill="#060907" fill-opacity="1"/><rect x="-879.4" y="1033" width="16.4" height="259.4" fill="#060907"/><circle cx="-806.1" cy="1001.4" r="123.1" fill="#060907" fill-opacity="1"/><circle cx="-878.4" cy="1029.6" r="182.9" fill="#060907" fill-opacity="1"/><circle cx="-981" cy="963.3" r="185.5" fill="#060907" fill-opacity="1"/><circle cx="-880.2" cy="935.5" r="189.2" fill="#060907" fill-opacity="1"/><circle cx="-682.7" cy="1065.3" r="89.7" fill="#060907" fill-opacity="1"/><circle cx="-750.6" cy="1100.8" r="135.5" fill="#060907" fill-opacity="1"/><circle cx="-777.3" cy="1035.2" r="102.2" fill="#060907" fill-opacity="1"/><rect x="3263" y="923.9" width="16.4" height="368.5" fill="#060907"/><circle cx="3411.4" cy="873.2" r="188" fill="#060907" fill-opacity="1"/><circle cx="3296.6" cy="956.9" r="255.2" fill="#060907" fill-opacity="1"/><circle cx="3206.6" cy="863" r="230" fill="#060907" fill-opacity="1"/><circle cx="3222.4" cy="782.5" r="262.9" fill="#060907" fill-opacity="1"/><circle cx="3564.5" cy="959.6" r="201.1" fill="#060907" fill-opacity="1"/><circle cx="3427.4" cy="1025.2" r="194.5" fill="#060907" fill-opacity="1"/><circle cx="3434.1" cy="937" r="191.2" fill="#060907" fill-opacity="1"/><rect x="-424.5" y="867.9" width="12.8" height="321.1" fill="#060907"/><circle cx="-299.5" cy="792.5" r="228.3" fill="#060907" fill-opacity="1"/><circle cx="-436.8" cy="893.4" r="186.4" fill="#060907" fill-opacity="1"/><circle cx="-521.3" cy="818" r="233.1" fill="#060907" fill-opacity="1"/><circle cx="-449.5" cy="750.6" r="210.2" fill="#060907" fill-opacity="1"/><circle cx="-136.2" cy="914.8" r="111.5" fill="#060907" fill-opacity="1"/><circle cx="-256.6" cy="974.3" r="112" fill="#060907" fill-opacity="1"/><circle cx="-256.1" cy="852.5" r="175.7" fill="#060907" fill-opacity="1"/><rect x="2811.8" y="948.3" width="12.8" height="240.8" fill="#060907"/><circle cx="2869.2" cy="910" r="125.6" fill="#060907" fill-opacity="1"/><circle cx="2844" cy="965.6" r="138.6" fill="#060907" fill-opacity="1"/><circle cx="2774.7" cy="902.5" r="147.4" fill="#060907" fill-opacity="1"/><circle cx="2830.6" cy="879.5" r="124.2" fill="#060907" fill-opacity="1"/><circle cx="3019.4" cy="973.3" r="87.5" fill="#060907" fill-opacity="1"/><circle cx="2906.6" cy="1019.6" r="85" fill="#060907" fill-opacity="1"/><circle cx="2900.3" cy="949.7" r="131.5" fill="#060907" fill-opacity="1"/><rect x="-69.2" y="907" width="10" height="201.3" fill="#060907"/><circle cx="-23.5" cy="877.3" r="126.3" fill="#060907" fill-opacity="1"/><circle cx="-54.1" cy="904.9" r="100.7" fill="#060907" fill-opacity="1"/><circle cx="-135.5" cy="889.4" r="154.7" fill="#060907" fill-opacity="1"/><circle cx="-72.6" cy="851.2" r="139.4" fill="#060907" fill-opacity="1"/><circle cx="88.8" cy="938" r="110.1" fill="#060907" fill-opacity="1"/><circle cx="42.9" cy="949.9" r="90.3" fill="#060907" fill-opacity="1"/><circle cx="19.7" cy="910.7" r="76" fill="#060907" fill-opacity="1"/><rect x="2459.2" y="934.3" width="10" height="174" fill="#060907"/><circle cx="2521.1" cy="891.4" r="105.4" fill="#060907" fill-opacity="1"/><circle cx="2461.6" cy="952.5" r="107.2" fill="#060907" fill-opacity="1"/><circle cx="2396.8" cy="921.8" r="95.9" fill="#060907" fill-opacity="1"/><circle cx="2490.8" cy="860.8" r="85.3" fill="#060907" fill-opacity="1"/><circle cx="2593.4" cy="956" r="94.6" fill="#060907" fill-opacity="1"/><circle cx="2540.5" cy="972.5" r="96.7" fill="#060907" fill-opacity="1"/><circle cx="2546.9" cy="944.3" r="87.2" fill="#060907" fill-opacity="1"/><rect x="208.5" y="856.4" width="7.8" height="188.9" fill="#060907"/><circle cx="250.6" cy="824.9" r="131.1" fill="#060907" fill-opacity="1"/><circle cx="231" cy="863.8" r="145.2" fill="#060907" fill-opacity="1"/><circle cx="180.6" cy="829.1" r="112.1" fill="#060907" fill-opacity="1"/><circle cx="224" cy="798.6" r="92.9" fill="#060907" fill-opacity="1"/><circle cx="379.3" cy="871.4" r="74.3" fill="#060907" fill-opacity="1"/><circle cx="298.7" cy="919.3" r="95.5" fill="#060907" fill-opacity="1"/><circle cx="288.7" cy="862.9" r="82.7" fill="#060907" fill-opacity="1"/><rect x="2183.7" y="890.8" width="7.8" height="154.5" fill="#060907"/><circle cx="2245.6" cy="869.9" r="92.4" fill="#060907" fill-opacity="1"/><circle cx="2200.8" cy="903.9" r="88.7" fill="#060907" fill-opacity="1"/><circle cx="2123.9" cy="849.9" r="102.8" fill="#060907" fill-opacity="1"/><circle cx="2183.9" cy="842.7" r="102.9" fill="#060907" fill-opacity="1"/><circle cx="2308.1" cy="914.9" r="74.9" fill="#060907" fill-opacity="1"/><circle cx="2259.2" cy="939.3" r="83.1" fill="#060907" fill-opacity="1"/><circle cx="2266.1" cy="897.6" r="75.6" fill="#060907" fill-opacity="1"/><rect x="425.4" y="894.5" width="6.1" height="101.5" fill="#060907"/><circle cx="455" cy="878.6" r="67.3" fill="#060907" fill-opacity="1"/><circle cx="439.6" cy="903.4" r="64.4" fill="#060907" fill-opacity="1"/><circle cx="393.9" cy="871.6" r="48" fill="#060907" fill-opacity="1"/><circle cx="433.2" cy="867.9" r="63.7" fill="#060907" fill-opacity="1"/><circle cx="501.3" cy="912.3" r="43" fill="#060907" fill-opacity="1"/><circle cx="480.6" cy="926.9" r="51" fill="#060907" fill-opacity="1"/><circle cx="477.2" cy="902.8" r="47" fill="#060907" fill-opacity="1"/><rect x="1968.5" y="848.8" width="6.1" height="147.2" fill="#060907"/><circle cx="2018.1" cy="831.8" r="114.1" fill="#060907" fill-opacity="1"/><circle cx="1958.6" cy="866.8" r="83.8" fill="#060907" fill-opacity="1"/><circle cx="1928.4" cy="834" r="73.3" fill="#060907" fill-opacity="1"/><circle cx="1976" cy="795.5" r="84.8" fill="#060907" fill-opacity="1"/><circle cx="2085.2" cy="871" r="76.6" fill="#060907" fill-opacity="1"/><circle cx="2043.8" cy="897.3" r="79.6" fill="#060907" fill-opacity="1"/><circle cx="2042.2" cy="841.8" r="63.9" fill="#060907" fill-opacity="1"/><rect x="594.8" y="880.4" width="4.8" height="77.1" fill="#060907"/><circle cx="617" cy="871.7" r="46" fill="#060907" fill-opacity="1"/><circle cx="589.8" cy="883.5" r="41.4" fill="#060907" fill-opacity="1"/><circle cx="581.5" cy="866.2" r="53.5" fill="#060907" fill-opacity="1"/><circle cx="593.8" cy="859.1" r="57.3" fill="#060907" fill-opacity="1"/><circle cx="666.3" cy="891.3" r="35.8" fill="#060907" fill-opacity="1"/><circle cx="629.4" cy="900.7" r="29" fill="#060907" fill-opacity="1"/><circle cx="633.6" cy="883.2" r="28.3" fill="#060907" fill-opacity="1"/><rect x="1800.4" y="839.8" width="4.8" height="117.7" fill="#060907"/><circle cx="1840.2" cy="826.4" r="90.8" fill="#060907" fill-opacity="1"/><circle cx="1786.7" cy="849.3" r="76.5" fill="#060907" fill-opacity="1"/><circle cx="1766.2" cy="814.3" r="91.9" fill="#060907" fill-opacity="1"/><circle cx="1788.8" cy="796.9" r="63.8" fill="#060907" fill-opacity="1"/><circle cx="1893.5" cy="862.2" r="44.5" fill="#060907" fill-opacity="1"/><circle cx="1857.8" cy="867.7" r="51" fill="#060907" fill-opacity="1"/><circle cx="1854.8" cy="845.1" r="55.6" fill="#060907" fill-opacity="1"/><rect x="727.2" y="862.1" width="3.7" height="65.3" fill="#060907"/><circle cx="757.7" cy="848.1" r="49.1" fill="#060907" fill-opacity="1"/><circle cx="733.1" cy="866.9" r="32.1" fill="#060907" fill-opacity="1"/><circle cx="714.6" cy="855.2" r="48.5" fill="#060907" fill-opacity="1"/><circle cx="721.4" cy="839.8" r="36.9" fill="#060907" fill-opacity="1"/><circle cx="782.1" cy="872.7" r="34.8" fill="#060907" fill-opacity="1"/><circle cx="762.2" cy="878.2" r="29" fill="#060907" fill-opacity="1"/><circle cx="755.4" cy="863.1" r="33.8" fill="#060907" fill-opacity="1"/><rect x="1669.1" y="846.1" width="3.7" height="81.3" fill="#060907"/><circle cx="1690.7" cy="834.7" r="60" fill="#060907" fill-opacity="1"/><circle cx="1669.7" cy="853.1" r="60" fill="#060907" fill-opacity="1"/><circle cx="1652" cy="834" r="49.9" fill="#060907" fill-opacity="1"/><circle cx="1663.9" cy="821.9" r="62.4" fill="#060907" fill-opacity="1"/><circle cx="1742.6" cy="861.8" r="36" fill="#060907" fill-opacity="1"/><circle cx="1712" cy="862.5" r="44.6" fill="#060907" fill-opacity="1"/><circle cx="1712.2" cy="846" r="33.4" fill="#060907" fill-opacity="1"/><rect x="830.6" y="842.9" width="2.9" height="61" fill="#060907"/><circle cx="850.2" cy="836.1" r="29.9" fill="#060907" fill-opacity="1"/><circle cx="827.5" cy="846.7" r="36.2" fill="#060907" fill-opacity="1"/><circle cx="813.9" cy="835.5" r="42.7" fill="#060907" fill-opacity="1"/><circle cx="835.1" cy="815.2" r="34.1" fill="#060907" fill-opacity="1"/><circle cx="874.8" cy="852.8" r="29.8" fill="#060907" fill-opacity="1"/><circle cx="857.8" cy="857.9" r="24" fill="#060907" fill-opacity="1"/><circle cx="855.7" cy="843.9" r="32.6" fill="#060907" fill-opacity="1"/><rect x="1566.5" y="837.6" width="2.9" height="66.3" fill="#060907"/><circle cx="1584" cy="829.2" r="48.5" fill="#060907" fill-opacity="1"/><circle cx="1563.3" cy="834.2" r="38.2" fill="#060907" fill-opacity="1"/><circle cx="1555.3" cy="825" r="34.6" fill="#060907" fill-opacity="1"/><circle cx="1557.4" cy="809.4" r="50.4" fill="#060907" fill-opacity="1"/><circle cx="1617.4" cy="847.4" r="36.4" fill="#060907" fill-opacity="1"/><circle cx="1597.4" cy="859.5" r="28.6" fill="#060907" fill-opacity="1"/><circle cx="1597.1" cy="835.3" r="24.9" fill="#060907" fill-opacity="1"/><rect x="911.4" y="849.8" width="2.3" height="35.7" fill="#060907"/><circle cx="921.2" cy="845.2" r="19.4" fill="#060907" fill-opacity="1"/><circle cx="909.5" cy="849" r="24.6" fill="#060907" fill-opacity="1"/><circle cx="906.8" cy="842.7" r="18.4" fill="#060907" fill-opacity="1"/><circle cx="908.7" cy="836.9" r="27.9" fill="#060907" fill-opacity="1"/><circle cx="942.8" cy="856.8" r="16.9" fill="#060907" fill-opacity="1"/><circle cx="928.6" cy="858" r="15.2" fill="#060907" fill-opacity="1"/><circle cx="928.5" cy="851.9" r="18.5" fill="#060907" fill-opacity="1"/><rect x="1486.3" y="847.7" width="2.3" height="37.9" fill="#060907"/><circle cx="1503.7" cy="841.2" r="20.6" fill="#060907" fill-opacity="1"/><circle cx="1485.4" cy="851.9" r="23.5" fill="#060907" fill-opacity="1"/><circle cx="1477" cy="838.8" r="20.5" fill="#060907" fill-opacity="1"/><circle cx="1486.6" cy="837.2" r="24.9" fill="#060907" fill-opacity="1"/><circle cx="1519.7" cy="855" r="16.4" fill="#060907" fill-opacity="1"/><circle cx="1506.6" cy="856.1" r="21" fill="#060907" fill-opacity="1"/><circle cx="1500.9" cy="848.9" r="14.2" fill="#060907" fill-opacity="1"/><rect x="1313.6" y="870" width="281.8" height="68.2" fill="#131418"/><rect x="1296.7" y="860" width="315.6" height="10" fill="#191b20"/><rect x="1499.6" y="835.9" width="73.3" height="35.5" fill="#191b20"/><rect x="1370" y="887.7" width="24" height="31.4" fill="#e5d3a8" fill-opacity="0.257"/><rect x="1402.4" y="887.7" width="24" height="31.4" fill="#e5d3a8" fill-opacity="0.33"/><rect x="1434.8" y="887.7" width="24" height="31.4" fill="#e5d3a8" fill-opacity="0.257"/><rect x="1467.2" y="887.7" width="24" height="31.4" fill="#e5d3a8" fill-opacity="0.257"/><rect x="1592.5" y="870" width="3.4" height="68.2" fill="#e5d3a8" fill-opacity="0.5"/><rect x="878.1" y="991.9" width="62.5" height="234.4" fill="#212429"/><rect x="878.1" y="991.9" width="62.5" height="4" fill="#e5d3a8" fill-opacity="0.55"/><rect x="889.4" y="1071.6" width="12.5" height="93.8" fill="#e5d3a8" fill-opacity="0.36"/><rect x="1459.4" y="991.9" width="62.5" height="234.4" fill="#212429"/><rect x="1459.4" y="991.9" width="62.5" height="4" fill="#e5d3a8" fill-opacity="0.55"/><rect x="1470.6" y="1071.6" width="12.5" height="93.8" fill="#e5d3a8" fill-opacity="0.36"/><rect x="878.1" y="977.9" width="643.8" height="16" fill="#212429"/><rect x="878.1" y="977.9" width="643.8" height="3" fill="#e5d3a8" fill-opacity="0.5"/><rect x="655.4" y="1088.7" width="3.1" height="21.9" fill="#7d9d7b" fill-opacity="0.26"/><rect x="1526.1" y="1182.7" width="4.2" height="22.2" fill="#7d9d7b" fill-opacity="0.26"/><rect x="611.9" y="1382.7" width="6.5" height="45.8" fill="#7d9d7b" fill-opacity="0.26"/><rect x="2152.5" y="1155" width="3.9" height="18.9" fill="#7d9d7b" fill-opacity="0.26"/><rect x="1672.5" y="1012.1" width="2.2" height="6.3" fill="#7d9d7b" fill-opacity="0.26"/><rect x="613.1" y="1212.7" width="4.5" height="16.2" fill="#7d9d7b" fill-opacity="0.26"/><rect x="891.5" y="1048.5" width="2.6" height="13.1" fill="#7d9d7b" fill-opacity="0.26"/><rect x="2508.4" y="1226.4" width="4.7" height="15.9" fill="#7d9d7b" fill-opacity="0.26"/><rect x="508.6" y="1022.4" width="2.3" height="7.5" fill="#7d9d7b" fill-opacity="0.26"/><rect x="1428.1" y="1077.3" width="3" height="8.4" fill="#7d9d7b" fill-opacity="0.26"/><rect x="1412" y="1013.1" width="2.2" height="7.6" fill="#7d9d7b" fill-opacity="0.26"/><rect x="-104" y="1148.7" width="3.8" height="24.3" fill="#7d9d7b" fill-opacity="0.26"/><rect x="734.8" y="995.8" width="2" height="8.5" fill="#7d9d7b" fill-opacity="0.26"/><rect x="-98.7" y="1259.1" width="5.1" height="23.1" fill="#7d9d7b" fill-opacity="0.26"/><rect x="1034.5" y="1059.7" width="2.8" height="11.6" fill="#7d9d7b" fill-opacity="0.26"/><rect x="1210.8" y="1377.4" width="6.4" height="21.7" fill="#7d9d7b" fill-opacity="0.26"/><rect x="214.4" y="1067.1" width="2.9" height="15.5" fill="#7d9d7b" fill-opacity="0.26"/><rect x="1378.9" y="1001.9" width="2.1" height="8.7" fill="#7d9d7b" fill-opacity="0.26"/><rect x="958.2" y="1012.5" width="2.2" height="8.9" fill="#7d9d7b" fill-opacity="0.26"/><rect x="1665.4" y="1062.9" width="2.8" height="14.9" fill="#7d9d7b" fill-opacity="0.26"/><rect x="2145.3" y="1047.9" width="2.6" height="11.3" fill="#7d9d7b" fill-opacity="0.26"/><rect x="3422.6" y="1359.8" width="6.2" height="36.6" fill="#7d9d7b" fill-opacity="0.26"/><rect x="1619.7" y="1002.9" width="2.1" height="7.4" fill="#7d9d7b" fill-opacity="0.26"/><rect x="239.7" y="1075.5" width="2.9" height="18.8" fill="#7d9d7b" fill-opacity="0.26"/><rect x="580" y="996.1" width="2" height="11.4" fill="#7d9d7b" fill-opacity="0.26"/><rect x="2076.1" y="1045.8" width="2.6" height="10.3" fill="#7d9d7b" fill-opacity="0.26"/><path d="M -1800 1512 q 94.4 -173 188.9 0 q 87 -134.9 174 0 q 82.5 -135.3 164.9 0 q 107.9 -102.1 215.9 0 q 130.1 -156.3 260.1 0 q 83 -148.9 165.9 0 q 118.5 -170.2 237 0 q 119.6 -73.2 239.2 0 q 66.1 -177.2 132.1 0 q 145.5 -76.5 290.9 0 q 104.6 -136.2 209.1 0 q 129.4 -174.9 258.9 0 q 82.9 -101.7 165.7 0 q 69.4 -176.8 138.7 0 q 117.1 -99.6 234.2 0 q 137.7 -112 275.5 0 q 109.3 -112.7 218.7 0 q 146.7 -139.3 293.4 0 q 91.5 -96.8 183 0 q 119.1 -97.2 238.3 0 q 104.2 -150.3 208.3 0 q 83 -108.3 166 0 q 111.8 -167 223.7 0 q 132.3 -107.2 264.7 0 q 104.5 -74.7 209 0 q 77 -144.5 154 0 q 109.3 -133.3 218.6 0 q 103.7 -87.6 207.3 0 q 69.2 -138.9 138.3 0 q 107.4 -103.7 214.9 0 L 4489.3 2412 L -1800 2412 Z" fill="#050706"/><circle cx="220.8" cy="1512.2" r="153.2" fill="#050706" fill-opacity="1"/><circle cx="235.5" cy="1567.4" r="145.1" fill="#050706" fill-opacity="1"/><circle cx="80.7" cy="1582.5" r="168.6" fill="#050706" fill-opacity="1"/><circle cx="62.6" cy="1534.8" r="189.7" fill="#050706" fill-opacity="1"/><circle cx="78.6" cy="1475.1" r="196" fill="#050706" fill-opacity="1"/><circle cx="166.2" cy="1489.4" r="201" fill="#050706" fill-opacity="1"/><circle cx="2332.2" cy="1561.7" r="155.1" fill="#050706" fill-opacity="1"/><circle cx="2332.1" cy="1610" r="150" fill="#050706" fill-opacity="1"/><circle cx="2212.5" cy="1628.3" r="221.6" fill="#050706" fill-opacity="1"/><circle cx="2223.7" cy="1567" r="191.5" fill="#050706" fill-opacity="1"/><circle cx="2224.5" cy="1508.1" r="220" fill="#050706" fill-opacity="1"/><circle cx="2333.5" cy="1533.3" r="208.5" fill="#050706" fill-opacity="1"/></g><rect x="0" y="0" width="1600" height="1100" fill="#5c7d5b" fill-opacity="0.06"/><rect x="0" y="0" width="1600" height="1100" fill="url(#verdaant-court-gallery-03-grid)" opacity="0.04"/><rect x="0" y="0" width="1600" height="1100" fill="url(#verdaant-court-gallery-03-vignette)"/><rect x="0" y="0" width="1600" height="1100" fill="#060607" filter="url(#verdaant-court-gallery-03-grain)" opacity="0.13"/></svg>
